<svg width="48" height="48" viewBox="0 0 48 48" fill="none" xmlns="http://www.w3.org/2000/svg">
<g clip-path="url(#clip0_207_94)">
<path d="M28.0251 7.025C28.0251 4.80406 26.2211 3 24.0001 3C21.7792 3 19.9751 4.80406 19.9751 7.025C19.9751 9.24594 21.7792 11.05 24.0001 11.05C26.2211 11.05 28.0251 9.24594 28.0251 7.025ZM29.7501 22.3128L33.0779 26.7978C33.8326 27.8184 35.2773 28.0341 36.2979 27.2722C37.3186 26.5103 37.5342 25.0728 36.7723 24.0522L31.7051 17.2241C29.8939 14.7875 27.0404 13.35 24.0001 13.35C20.9598 13.35 18.1064 14.7875 16.2951 17.2241L11.2279 24.0522C10.4733 25.0728 10.6817 26.5103 11.7023 27.2722C12.7229 28.0341 14.1604 27.8184 14.9223 26.7978L18.2501 22.3128V42.1C18.2501 43.3722 19.2779 44.4 20.5501 44.4C21.8223 44.4 22.8501 43.3722 22.8501 42.1V30.6C22.8501 29.9675 23.3676 29.45 24.0001 29.45C24.6326 29.45 25.1501 29.9675 25.1501 30.6V42.1C25.1501 43.3722 26.1779 44.4 27.4501 44.4C28.7223 44.4 29.7501 43.3722 29.7501 42.1V22.3128Z" fill="#00A5AB"/>
<path d="M29 16.1C28.7791 16.1 28.6 16.2791 28.6 16.5C28.6 16.7209 28.7791 16.9 29 16.9V16.5V16.1ZM48.2828 16.7828C48.4391 16.6266 48.4391 16.3734 48.2828 16.2172L45.7373 13.6716C45.581 13.5154 45.3278 13.5154 45.1716 13.6716C45.0154 13.8278 45.0154 14.081 45.1716 14.2373L47.4343 16.5L45.1716 18.7627C45.0154 18.919 45.0154 19.1722 45.1716 19.3284C45.3278 19.4846 45.581 19.4846 45.7373 19.3284L48.2828 16.7828ZM29.475 16.9C29.6959 16.9 29.875 16.7209 29.875 16.5C29.875 16.2791 29.6959 16.1 29.475 16.1V16.5V16.9ZM30.425 16.1C30.2041 16.1 30.025 16.2791 30.025 16.5C30.025 16.7209 30.2041 16.9 30.425 16.9V16.5V16.1ZM31.375 16.9C31.5959 16.9 31.775 16.7209 31.775 16.5C31.775 16.2791 31.5959 16.1 31.375 16.1V16.5V16.9ZM32.325 16.1C32.1041 16.1 31.925 16.2791 31.925 16.5C31.925 16.7209 32.1041 16.9 32.325 16.9V16.5V16.1ZM33.275 16.9C33.4959 16.9 33.675 16.7209 33.675 16.5C33.675 16.2791 33.4959 16.1 33.275 16.1V16.5V16.9ZM34.225 16.1C34.0041 16.1 33.825 16.2791 33.825 16.5C33.825 16.7209 34.0041 16.9 34.225 16.9V16.5V16.1ZM35.175 16.9C35.3959 16.9 35.575 16.7209 35.575 16.5C35.575 16.2791 35.3959 16.1 35.175 16.1V16.5V16.9ZM36.125 16.1C35.9041 16.1 35.725 16.2791 35.725 16.5C35.725 16.7209 35.9041 16.9 36.125 16.9V16.5V16.1ZM37.075 16.9C37.2959 16.9 37.475 16.7209 37.475 16.5C37.475 16.2791 37.2959 16.1 37.075 16.1V16.5V16.9ZM38.025 16.1C37.8041 16.1 37.625 16.2791 37.625 16.5C37.625 16.7209 37.8041 16.9 38.025 16.9V16.5V16.1ZM38.975 16.9C39.1959 16.9 39.375 16.7209 39.375 16.5C39.375 16.2791 39.1959 16.1 38.975 16.1V16.5V16.9ZM39.925 16.1C39.7041 16.1 39.525 16.2791 39.525 16.5C39.525 16.7209 39.7041 16.9 39.925 16.9V16.5V16.1ZM40.875 16.9C41.0959 16.9 41.275 16.7209 41.275 16.5C41.275 16.2791 41.0959 16.1 40.875 16.1V16.5V16.9ZM41.825 16.1C41.6041 16.1 41.425 16.2791 41.425 16.5C41.425 16.7209 41.6041 16.9 41.825 16.9V16.5V16.1ZM42.775 16.9C42.9959 16.9 43.175 16.7209 43.175 16.5C43.175 16.2791 42.9959 16.1 42.775 16.1V16.5V16.9ZM43.725 16.1C43.5041 16.1 43.325 16.2791 43.325 16.5C43.325 16.7209 43.5041 16.9 43.725 16.9V16.5V16.1ZM44.675 16.9C44.8959 16.9 45.075 16.7209 45.075 16.5C45.075 16.2791 44.8959 16.1 44.675 16.1V16.5V16.9ZM45.625 16.1C45.4041 16.1 45.225 16.2791 45.225 16.5C45.225 16.7209 45.4041 16.9 45.625 16.9V16.5V16.1ZM46.575 16.9C46.7959 16.9 46.975 16.7209 46.975 16.5C46.975 16.2791 46.7959 16.1 46.575 16.1V16.5V16.9ZM47.525 16.1C47.3041 16.1 47.125 16.2791 47.125 16.5C47.125 16.7209 47.3041 16.9 47.525 16.9V16.5V16.1ZM29 16.5V16.9H29.475V16.5V16.1H29V16.5ZM30.425 16.5V16.9H31.375V16.5V16.1H30.425V16.5ZM32.325 16.5V16.9H33.275V16.5V16.1H32.325V16.5ZM34.225 16.5V16.9H35.175V16.5V16.1H34.225V16.5ZM36.125 16.5V16.9H37.075V16.5V16.1H36.125V16.5ZM38.025 16.5V16.9H38.975V16.5V16.1H38.025V16.5ZM39.925 16.5V16.9H40.875V16.5V16.1H39.925V16.5ZM41.825 16.5V16.9H42.775V16.5V16.1H41.825V16.5ZM43.725 16.5V16.9H44.675V16.5V16.1H43.725V16.5ZM45.625 16.5V16.9H46.575V16.5V16.1H45.625V16.5ZM47.525 16.5V16.9H48V16.5V16.1H47.525V16.5Z" fill="#00A5AB"/>
<path d="M20 16.9C20.2209 16.9 20.4 16.7209 20.4 16.5C20.4 16.2791 20.2209 16.1 20 16.1V16.5V16.9ZM-0.282843 16.2172C-0.439053 16.3734 -0.439053 16.6266 -0.282843 16.7828L2.26274 19.3284C2.41895 19.4846 2.67222 19.4846 2.82843 19.3284C2.98464 19.1722 2.98464 18.919 2.82843 18.7627L0.565685 16.5L2.82843 14.2373C2.98464 14.081 2.98464 13.8278 2.82843 13.6716C2.67222 13.5154 2.41895 13.5154 2.26274 13.6716L-0.282843 16.2172ZM19.5 16.1C19.2791 16.1 19.1 16.2791 19.1 16.5C19.1 16.7209 19.2791 16.9 19.5 16.9V16.5V16.1ZM18.5 16.9C18.7209 16.9 18.9 16.7209 18.9 16.5C18.9 16.2791 18.7209 16.1 18.5 16.1V16.5V16.9ZM17.5 16.1C17.2791 16.1 17.1 16.2791 17.1 16.5C17.1 16.7209 17.2791 16.9 17.5 16.9V16.5V16.1ZM16.5 16.9C16.7209 16.9 16.9 16.7209 16.9 16.5C16.9 16.2791 16.7209 16.1 16.5 16.1V16.5V16.9ZM15.5 16.1C15.2791 16.1 15.1 16.2791 15.1 16.5C15.1 16.7209 15.2791 16.9 15.5 16.9V16.5V16.1ZM14.5 16.9C14.7209 16.9 14.9 16.7209 14.9 16.5C14.9 16.2791 14.7209 16.1 14.5 16.1V16.5V16.9ZM13.5 16.1C13.2791 16.1 13.1 16.2791 13.1 16.5C13.1 16.7209 13.2791 16.9 13.5 16.9V16.5V16.1ZM12.5 16.9C12.7209 16.9 12.9 16.7209 12.9 16.5C12.9 16.2791 12.7209 16.1 12.5 16.1V16.5V16.9ZM11.5 16.1C11.2791 16.1 11.1 16.2791 11.1 16.5C11.1 16.7209 11.2791 16.9 11.5 16.9V16.5V16.1ZM10.5 16.9C10.7209 16.9 10.9 16.7209 10.9 16.5C10.9 16.2791 10.7209 16.1 10.5 16.1V16.5V16.9ZM9.5 16.1C9.27909 16.1 9.1 16.2791 9.1 16.5C9.1 16.7209 9.27909 16.9 9.5 16.9V16.5V16.1ZM8.5 16.9C8.72091 16.9 8.9 16.7209 8.9 16.5C8.9 16.2791 8.72091 16.1 8.5 16.1V16.5V16.9ZM7.5 16.1C7.27909 16.1 7.1 16.2791 7.1 16.5C7.1 16.7209 7.27909 16.9 7.5 16.9V16.5V16.1ZM6.5 16.9C6.72091 16.9 6.9 16.7209 6.9 16.5C6.9 16.2791 6.72091 16.1 6.5 16.1V16.5V16.9ZM5.5 16.1C5.27909 16.1 5.1 16.2791 5.1 16.5C5.1 16.7209 5.27909 16.9 5.5 16.9V16.5V16.1ZM4.5 16.9C4.72091 16.9 4.9 16.7209 4.9 16.5C4.9 16.2791 4.72091 16.1 4.5 16.1V16.5V16.9ZM3.5 16.1C3.27909 16.1 3.1 16.2791 3.1 16.5C3.1 16.7209 3.27909 16.9 3.5 16.9V16.5V16.1ZM2.5 16.9C2.72091 16.9 2.9 16.7209 2.9 16.5C2.9 16.2791 2.72091 16.1 2.5 16.1V16.5V16.9ZM1.5 16.1C1.27909 16.1 1.1 16.2791 1.1 16.5C1.1 16.7209 1.27909 16.9 1.5 16.9V16.5V16.1ZM0.5 16.9C0.720913 16.9 0.9 16.7209 0.9 16.5C0.9 16.2791 0.720913 16.1 0.5 16.1V16.5V16.9ZM20 16.5V16.1H19.5V16.5V16.9H20V16.5ZM18.5 16.5V16.1H17.5V16.5V16.9H18.5V16.5ZM16.5 16.5V16.1H15.5V16.5V16.9H16.5V16.5ZM14.5 16.5V16.1H13.5V16.5V16.9H14.5V16.5ZM12.5 16.5V16.1H11.5V16.5V16.9H12.5V16.5ZM10.5 16.5V16.1H9.5V16.5V16.9H10.5V16.5ZM8.5 16.5V16.1H7.5V16.5V16.9H8.5V16.5ZM6.5 16.5V16.1H5.5V16.5V16.9H6.5V16.5ZM4.5 16.5V16.1H3.5V16.5V16.9H4.5V16.5ZM2.5 16.5V16.1H1.5V16.5V16.9H2.5V16.5ZM0.5 16.5V16.1H0V16.5V16.9H0.5V16.5Z" fill="#00A5AB"/>
</g>
<defs>
<clipPath id="clip0_207_94">
<rect width="48" height="48" fill="white"/>
</clipPath>
</defs>
</svg>
