<svg width="256" height="256" viewBox="0 0 256 256" fill="none" xmlns="http://www.w3.org/2000/svg">
<rect y="43.5" width="256" height="169" rx="12" fill="#642D80"/>
<path d="M78.4362 78.5V65.492L72.8202 75.5H71.5002L65.8602 65.492V78.5H63.7002V61.46H65.9802L72.1482 72.524L78.3402 61.46H80.5962V78.5H78.4362ZM83.2395 74.876C83.2395 74.076 83.4635 73.388 83.9115 72.812C84.3755 72.22 85.0075 71.764 85.8075 71.444C86.6075 71.124 87.5355 70.964 88.5915 70.964C89.1515 70.964 89.7435 71.012 90.3675 71.108C90.9915 71.188 91.5435 71.316 92.0235 71.492V70.58C92.0235 69.62 91.7355 68.868 91.1595 68.324C90.5835 67.764 89.7675 67.484 88.7115 67.484C88.0235 67.484 87.3595 67.612 86.7195 67.868C86.0955 68.108 85.4315 68.46 84.7275 68.924L83.9595 67.436C84.7755 66.876 85.5915 66.46 86.4075 66.188C87.2235 65.9 88.0715 65.756 88.9515 65.756C90.5515 65.756 91.8155 66.204 92.7435 67.1C93.6715 67.98 94.1355 69.212 94.1355 70.796V76.1C94.1355 76.356 94.1835 76.548 94.2795 76.676C94.3915 76.788 94.5675 76.852 94.8075 76.868V78.5C94.5995 78.532 94.4155 78.556 94.2555 78.572C94.1115 78.588 93.9915 78.596 93.8955 78.596C93.3995 78.596 93.0235 78.46 92.7675 78.188C92.5275 77.916 92.3915 77.628 92.3595 77.324L92.3115 76.532C91.7675 77.236 91.0555 77.78 90.1755 78.164C89.2955 78.548 88.4235 78.74 87.5595 78.74C86.7275 78.74 85.9835 78.572 85.3275 78.236C84.6715 77.884 84.1595 77.42 83.7915 76.844C83.4235 76.252 83.2395 75.596 83.2395 74.876ZM91.3995 75.764C91.5915 75.54 91.7435 75.316 91.8555 75.092C91.9675 74.852 92.0235 74.652 92.0235 74.492V72.932C91.5275 72.74 91.0075 72.596 90.4635 72.5C89.9195 72.388 89.3835 72.332 88.8555 72.332C87.7835 72.332 86.9115 72.548 86.2395 72.98C85.5835 73.396 85.2555 73.972 85.2555 74.708C85.2555 75.108 85.3595 75.5 85.5675 75.884C85.7915 76.252 86.1115 76.556 86.5275 76.796C86.9595 77.036 87.4875 77.156 88.1115 77.156C88.7675 77.156 89.3915 77.028 89.9835 76.772C90.5755 76.5 91.0475 76.164 91.3995 75.764ZM108.385 78.5H106.273V71.492C106.273 70.164 106.065 69.196 105.649 68.588C105.249 67.964 104.633 67.652 103.801 67.652C103.225 67.652 102.649 67.796 102.073 68.084C101.513 68.372 101.009 68.764 100.561 69.26C100.129 69.74 99.8166 70.3 99.6246 70.94V78.5H97.5126V65.972H99.4326V68.66C99.7686 68.068 100.201 67.556 100.729 67.124C101.257 66.692 101.857 66.356 102.529 66.116C103.201 65.876 103.905 65.756 104.641 65.756C105.361 65.756 105.961 65.892 106.441 66.164C106.937 66.42 107.321 66.788 107.593 67.268C107.881 67.732 108.081 68.284 108.193 68.924C108.321 69.564 108.385 70.26 108.385 71.012V78.5ZM118.032 77.876C117.856 77.956 117.616 78.06 117.312 78.188C117.008 78.316 116.656 78.428 116.256 78.524C115.856 78.62 115.432 78.668 114.984 78.668C114.472 78.668 114 78.58 113.568 78.404C113.136 78.212 112.792 77.924 112.536 77.54C112.28 77.14 112.152 76.644 112.152 76.052V67.628H110.448V65.972H112.152V61.796H114.264V65.972H117.072V67.628H114.264V75.404C114.296 75.852 114.448 76.188 114.72 76.412C114.992 76.62 115.312 76.724 115.68 76.724C116.096 76.724 116.48 76.652 116.832 76.508C117.184 76.364 117.416 76.26 117.528 76.196L118.032 77.876ZM125.369 78.74C124.425 78.74 123.561 78.572 122.777 78.236C122.009 77.884 121.337 77.412 120.761 76.82C120.201 76.212 119.761 75.516 119.441 74.732C119.137 73.948 118.985 73.116 118.985 72.236C118.985 71.052 119.257 69.972 119.801 68.996C120.345 68.02 121.097 67.236 122.057 66.644C123.033 66.052 124.145 65.756 125.393 65.756C126.657 65.756 127.753 66.06 128.681 66.668C129.625 67.26 130.353 68.044 130.865 69.02C131.393 69.98 131.657 71.02 131.657 72.14C131.657 72.3 131.649 72.46 131.633 72.62C131.633 72.764 131.625 72.876 131.609 72.956H121.217C121.281 73.772 121.505 74.5 121.889 75.14C122.289 75.764 122.801 76.26 123.425 76.628C124.049 76.98 124.721 77.156 125.441 77.156C126.209 77.156 126.929 76.964 127.601 76.58C128.289 76.196 128.761 75.692 129.017 75.068L130.841 75.572C130.569 76.18 130.161 76.724 129.617 77.204C129.089 77.684 128.457 78.06 127.721 78.332C127.001 78.604 126.217 78.74 125.369 78.74ZM121.145 71.492H129.689C129.625 70.676 129.393 69.956 128.993 69.332C128.593 68.708 128.081 68.22 127.457 67.868C126.833 67.516 126.145 67.34 125.393 67.34C124.657 67.34 123.977 67.516 123.353 67.868C122.729 68.22 122.217 68.708 121.817 69.332C121.433 69.956 121.209 70.676 121.145 71.492ZM144.877 78.5H142.765V71.492C142.765 70.164 142.557 69.196 142.141 68.588C141.741 67.964 141.125 67.652 140.293 67.652C139.717 67.652 139.141 67.796 138.565 68.084C138.005 68.372 137.501 68.764 137.053 69.26C136.621 69.74 136.309 70.3 136.117 70.94V78.5H134.005V65.972H135.925V68.66C136.261 68.068 136.693 67.556 137.221 67.124C137.749 66.692 138.349 66.356 139.021 66.116C139.693 65.876 140.397 65.756 141.133 65.756C141.853 65.756 142.453 65.892 142.933 66.164C143.429 66.42 143.813 66.788 144.085 67.268C144.373 67.732 144.573 68.284 144.685 68.924C144.813 69.564 144.877 70.26 144.877 71.012V78.5ZM159.033 78.5H156.921V71.492C156.921 70.212 156.689 69.252 156.225 68.612C155.777 67.972 155.129 67.652 154.281 67.652C153.737 67.652 153.185 67.796 152.625 68.084C152.081 68.372 151.601 68.764 151.185 69.26C150.769 69.74 150.465 70.3 150.273 70.94V78.5H148.161V60.98H150.273V68.66C150.769 67.764 151.441 67.06 152.289 66.548C153.153 66.02 154.081 65.756 155.073 65.756C155.825 65.756 156.449 65.892 156.945 66.164C157.457 66.42 157.865 66.788 158.169 67.268C158.473 67.748 158.689 68.308 158.817 68.948C158.961 69.572 159.033 70.26 159.033 71.012V78.5ZM161.333 74.876C161.333 74.076 161.557 73.388 162.005 72.812C162.469 72.22 163.101 71.764 163.901 71.444C164.701 71.124 165.629 70.964 166.685 70.964C167.245 70.964 167.837 71.012 168.461 71.108C169.085 71.188 169.637 71.316 170.117 71.492V70.58C170.117 69.62 169.829 68.868 169.253 68.324C168.677 67.764 167.861 67.484 166.805 67.484C166.117 67.484 165.453 67.612 164.813 67.868C164.189 68.108 163.525 68.46 162.821 68.924L162.053 67.436C162.869 66.876 163.685 66.46 164.501 66.188C165.317 65.9 166.165 65.756 167.045 65.756C168.645 65.756 169.909 66.204 170.837 67.1C171.765 67.98 172.229 69.212 172.229 70.796V76.1C172.229 76.356 172.277 76.548 172.373 76.676C172.485 76.788 172.661 76.852 172.901 76.868V78.5C172.693 78.532 172.509 78.556 172.349 78.572C172.205 78.588 172.085 78.596 171.989 78.596C171.493 78.596 171.117 78.46 170.861 78.188C170.621 77.916 170.485 77.628 170.453 77.324L170.405 76.532C169.861 77.236 169.149 77.78 168.269 78.164C167.389 78.548 166.517 78.74 165.653 78.74C164.821 78.74 164.077 78.572 163.421 78.236C162.765 77.884 162.253 77.42 161.885 76.844C161.517 76.252 161.333 75.596 161.333 74.876ZM169.493 75.764C169.685 75.54 169.837 75.316 169.949 75.092C170.061 74.852 170.117 74.652 170.117 74.492V72.932C169.621 72.74 169.101 72.596 168.557 72.5C168.013 72.388 167.477 72.332 166.949 72.332C165.877 72.332 165.005 72.548 164.333 72.98C163.677 73.396 163.349 73.972 163.349 74.708C163.349 75.108 163.453 75.5 163.661 75.884C163.885 76.252 164.205 76.556 164.621 76.796C165.053 77.036 165.581 77.156 166.205 77.156C166.861 77.156 167.485 77.028 168.077 76.772C168.669 76.5 169.141 76.164 169.493 75.764ZM187.149 78.74C186.205 78.74 185.349 78.572 184.581 78.236C183.813 77.884 183.149 77.412 182.589 76.82C182.029 76.212 181.597 75.516 181.293 74.732C180.989 73.948 180.837 73.124 180.837 72.26C180.837 71.38 180.989 70.548 181.293 69.764C181.597 68.98 182.029 68.292 182.589 67.7C183.149 67.092 183.813 66.62 184.581 66.284C185.365 65.932 186.221 65.756 187.149 65.756C188.093 65.756 188.949 65.932 189.717 66.284C190.485 66.62 191.149 67.092 191.709 67.7C192.285 68.292 192.725 68.98 193.029 69.764C193.333 70.548 193.485 71.38 193.485 72.26C193.485 73.124 193.333 73.948 193.029 74.732C192.725 75.516 192.293 76.212 191.733 76.82C191.173 77.412 190.501 77.884 189.717 78.236C188.949 78.572 188.093 78.74 187.149 78.74ZM182.997 72.284C182.997 73.148 183.181 73.932 183.549 74.636C183.933 75.34 184.437 75.9 185.061 76.316C185.685 76.716 186.381 76.916 187.149 76.916C187.917 76.916 188.613 76.708 189.237 76.292C189.877 75.876 190.381 75.316 190.749 74.612C191.133 73.892 191.325 73.1 191.325 72.236C191.325 71.372 191.133 70.588 190.749 69.884C190.381 69.18 189.877 68.62 189.237 68.204C188.613 67.788 187.917 67.58 187.149 67.58C186.381 67.58 185.685 67.796 185.061 68.228C184.437 68.644 183.933 69.204 183.549 69.908C183.181 70.612 182.997 71.404 182.997 72.284ZM52.2474 101.26C52.2474 100.076 52.4874 98.996 52.9674 98.02C53.4634 97.028 54.1354 96.236 54.9834 95.644C55.8474 95.052 56.8314 94.756 57.9354 94.756C58.9434 94.756 59.8474 95.02 60.6474 95.548C61.4474 96.076 62.0714 96.716 62.5194 97.468V89.98H64.6314V105.1C64.6314 105.356 64.6794 105.548 64.7754 105.676C64.8874 105.788 65.0634 105.852 65.3034 105.868V107.5C64.9034 107.564 64.5914 107.596 64.3674 107.596C63.9514 107.596 63.5834 107.452 63.2634 107.164C62.9594 106.876 62.8074 106.556 62.8074 106.204V105.148C62.3114 105.948 61.6474 106.58 60.8154 107.044C59.9834 107.508 59.1194 107.74 58.2234 107.74C57.3594 107.74 56.5594 107.572 55.8234 107.236C55.1034 106.884 54.4714 106.404 53.9274 105.796C53.3994 105.188 52.9834 104.5 52.6794 103.732C52.3914 102.948 52.2474 102.124 52.2474 101.26ZM62.5194 103.108V99.508C62.3274 98.964 62.0154 98.476 61.5834 98.044C61.1514 97.596 60.6634 97.244 60.1194 96.988C59.5914 96.716 59.0634 96.58 58.5354 96.58C57.9114 96.58 57.3434 96.716 56.8314 96.988C56.3354 97.244 55.9034 97.596 55.5354 98.044C55.1834 98.476 54.9114 98.972 54.7194 99.532C54.5274 100.092 54.4314 100.676 54.4314 101.284C54.4314 101.908 54.5354 102.5 54.7434 103.06C54.9674 103.62 55.2714 104.116 55.6554 104.548C56.0554 104.98 56.5114 105.316 57.0234 105.556C57.5514 105.796 58.1194 105.916 58.7274 105.916C59.1114 105.916 59.5034 105.844 59.9034 105.7C60.3194 105.556 60.7114 105.356 61.0794 105.1C61.4474 104.844 61.7594 104.548 62.0154 104.212C62.2714 103.86 62.4394 103.492 62.5194 103.108ZM68.1571 107.5V94.972H70.2691V107.5H68.1571ZM68.1571 92.62V89.98H70.2691V92.62H68.1571ZM77.9844 107.74C76.9444 107.74 75.9684 107.572 75.0564 107.236C74.1444 106.884 73.3604 106.364 72.7044 105.676L73.5204 104.188C74.2404 104.86 74.9604 105.34 75.6804 105.628C76.4004 105.916 77.1364 106.06 77.8884 106.06C78.7524 106.06 79.4564 105.9 80.0004 105.58C80.5444 105.244 80.8164 104.756 80.8164 104.116C80.8164 103.652 80.6724 103.308 80.3844 103.084C80.1124 102.86 79.7204 102.676 79.2084 102.532C78.6964 102.372 78.0884 102.196 77.3844 102.004C76.5204 101.748 75.7924 101.476 75.2004 101.188C74.6084 100.9 74.1604 100.54 73.8564 100.108C73.5524 99.676 73.4004 99.132 73.4004 98.476C73.4004 97.676 73.6084 97.004 74.0244 96.46C74.4404 95.9 75.0084 95.476 75.7284 95.188C76.4644 94.9 77.2964 94.756 78.2244 94.756C79.1524 94.756 79.9924 94.9 80.7444 95.188C81.4964 95.476 82.1444 95.9 82.6884 96.46L81.7284 97.924C81.2324 97.412 80.6884 97.036 80.0964 96.796C79.5044 96.54 78.8404 96.412 78.1044 96.412C77.6724 96.412 77.2484 96.468 76.8324 96.58C76.4164 96.676 76.0724 96.86 75.8004 97.132C75.5284 97.388 75.3924 97.756 75.3924 98.236C75.3924 98.636 75.4964 98.956 75.7044 99.196C75.9284 99.42 76.2484 99.612 76.6644 99.772C77.0964 99.932 77.6164 100.108 78.2244 100.3C79.1684 100.572 79.9844 100.844 80.6724 101.116C81.3764 101.388 81.9204 101.74 82.3044 102.172C82.6884 102.604 82.8804 103.204 82.8804 103.972C82.8804 105.156 82.4324 106.084 81.5364 106.756C80.6404 107.412 79.4564 107.74 77.9844 107.74ZM92.1511 107.74C91.1271 107.74 90.2151 107.484 89.4151 106.972C88.6151 106.46 87.9831 105.812 87.5191 105.028V112.612H85.4071V94.972H87.2791V97.324C87.7751 96.556 88.4231 95.94 89.2231 95.476C90.0231 94.996 90.8951 94.756 91.8391 94.756C92.7031 94.756 93.4951 94.932 94.2151 95.284C94.9351 95.636 95.5591 96.116 96.0871 96.724C96.6151 97.332 97.0231 98.028 97.3111 98.812C97.6151 99.58 97.7671 100.388 97.7671 101.236C97.7671 102.42 97.5271 103.508 97.0471 104.5C96.5831 105.492 95.9271 106.284 95.0791 106.876C94.2311 107.452 93.2551 107.74 92.1511 107.74ZM91.5031 105.916C92.1271 105.916 92.6871 105.788 93.1831 105.532C93.6951 105.26 94.1271 104.908 94.4791 104.476C94.8471 104.028 95.1271 103.524 95.3191 102.964C95.5111 102.404 95.6071 101.828 95.6071 101.236C95.6071 100.612 95.4951 100.02 95.2711 99.46C95.0631 98.9 94.7591 98.404 94.3591 97.972C93.9751 97.54 93.5191 97.204 92.9911 96.964C92.4791 96.708 91.9191 96.58 91.3111 96.58C90.9271 96.58 90.5271 96.652 90.1111 96.796C89.7111 96.94 89.3271 97.148 88.9591 97.42C88.5911 97.676 88.2791 97.972 88.0231 98.308C87.7671 98.644 87.5991 99.004 87.5191 99.388V102.964C87.7591 103.508 88.0791 104.004 88.4791 104.452C88.8791 104.9 89.3431 105.26 89.8711 105.532C90.3991 105.788 90.9431 105.916 91.5031 105.916ZM105.832 107.74C104.888 107.74 104.032 107.572 103.264 107.236C102.496 106.884 101.832 106.412 101.272 105.82C100.712 105.212 100.28 104.516 99.9763 103.732C99.6723 102.948 99.5203 102.124 99.5203 101.26C99.5203 100.38 99.6723 99.548 99.9763 98.764C100.28 97.98 100.712 97.292 101.272 96.7C101.832 96.092 102.496 95.62 103.264 95.284C104.048 94.932 104.904 94.756 105.832 94.756C106.776 94.756 107.632 94.932 108.4 95.284C109.168 95.62 109.832 96.092 110.392 96.7C110.968 97.292 111.408 97.98 111.712 98.764C112.016 99.548 112.168 100.38 112.168 101.26C112.168 102.124 112.016 102.948 111.712 103.732C111.408 104.516 110.976 105.212 110.416 105.82C109.856 106.412 109.184 106.884 108.4 107.236C107.632 107.572 106.776 107.74 105.832 107.74ZM101.68 101.284C101.68 102.148 101.864 102.932 102.232 103.636C102.616 104.34 103.12 104.9 103.744 105.316C104.368 105.716 105.064 105.916 105.832 105.916C106.6 105.916 107.296 105.708 107.92 105.292C108.56 104.876 109.064 104.316 109.432 103.612C109.816 102.892 110.008 102.1 110.008 101.236C110.008 100.372 109.816 99.588 109.432 98.884C109.064 98.18 108.56 97.62 107.92 97.204C107.296 96.788 106.6 96.58 105.832 96.58C105.064 96.58 104.368 96.796 103.744 97.228C103.12 97.644 102.616 98.204 102.232 98.908C101.864 99.612 101.68 100.404 101.68 101.284ZM119.023 107.74C117.983 107.74 117.007 107.572 116.095 107.236C115.183 106.884 114.399 106.364 113.743 105.676L114.559 104.188C115.279 104.86 115.999 105.34 116.719 105.628C117.439 105.916 118.175 106.06 118.927 106.06C119.791 106.06 120.495 105.9 121.039 105.58C121.583 105.244 121.855 104.756 121.855 104.116C121.855 103.652 121.711 103.308 121.423 103.084C121.151 102.86 120.759 102.676 120.247 102.532C119.735 102.372 119.127 102.196 118.423 102.004C117.559 101.748 116.831 101.476 116.239 101.188C115.647 100.9 115.199 100.54 114.895 100.108C114.591 99.676 114.439 99.132 114.439 98.476C114.439 97.676 114.647 97.004 115.063 96.46C115.479 95.9 116.047 95.476 116.767 95.188C117.503 94.9 118.335 94.756 119.263 94.756C120.191 94.756 121.031 94.9 121.783 95.188C122.535 95.476 123.183 95.9 123.727 96.46L122.767 97.924C122.271 97.412 121.727 97.036 121.135 96.796C120.543 96.54 119.879 96.412 119.143 96.412C118.711 96.412 118.287 96.468 117.871 96.58C117.455 96.676 117.111 96.86 116.839 97.132C116.567 97.388 116.431 97.756 116.431 98.236C116.431 98.636 116.535 98.956 116.743 99.196C116.967 99.42 117.287 99.612 117.703 99.772C118.135 99.932 118.655 100.108 119.263 100.3C120.207 100.572 121.023 100.844 121.711 101.116C122.415 101.388 122.959 101.74 123.343 102.172C123.727 102.604 123.919 103.204 123.919 103.972C123.919 105.156 123.471 106.084 122.575 106.756C121.679 107.412 120.495 107.74 119.023 107.74ZM126.446 107.5V94.972H128.558V107.5H126.446ZM126.446 92.62V89.98H128.558V92.62H126.446ZM138.457 106.876C138.281 106.956 138.041 107.06 137.737 107.188C137.433 107.316 137.081 107.428 136.681 107.524C136.281 107.62 135.857 107.668 135.409 107.668C134.897 107.668 134.425 107.58 133.993 107.404C133.561 107.212 133.217 106.924 132.961 106.54C132.705 106.14 132.577 105.644 132.577 105.052V96.628H130.873V94.972H132.577V90.796H134.689V94.972H137.497V96.628H134.689V104.404C134.721 104.852 134.873 105.188 135.145 105.412C135.417 105.62 135.737 105.724 136.105 105.724C136.521 105.724 136.905 105.652 137.257 105.508C137.609 105.364 137.841 105.26 137.953 105.196L138.457 106.876ZM140.415 107.5V94.972H142.527V107.5H140.415ZM140.415 92.62V89.98H142.527V92.62H140.415ZM149.546 107.5L144.626 94.972H146.834L150.77 105.484L154.706 94.972H156.77L151.85 107.5H149.546ZM163.934 107.74C162.99 107.74 162.134 107.572 161.366 107.236C160.598 106.884 159.934 106.412 159.374 105.82C158.814 105.212 158.382 104.516 158.078 103.732C157.774 102.948 157.622 102.124 157.622 101.26C157.622 100.38 157.774 99.548 158.078 98.764C158.382 97.98 158.814 97.292 159.374 96.7C159.934 96.092 160.598 95.62 161.366 95.284C162.15 94.932 163.006 94.756 163.934 94.756C164.878 94.756 165.734 94.932 166.502 95.284C167.27 95.62 167.934 96.092 168.494 96.7C169.07 97.292 169.51 97.98 169.814 98.764C170.118 99.548 170.27 100.38 170.27 101.26C170.27 102.124 170.118 102.948 169.814 103.732C169.51 104.516 169.078 105.212 168.518 105.82C167.958 106.412 167.286 106.884 166.502 107.236C165.734 107.572 164.878 107.74 163.934 107.74ZM159.782 101.284C159.782 102.148 159.966 102.932 160.334 103.636C160.718 104.34 161.222 104.9 161.846 105.316C162.47 105.716 163.166 105.916 163.934 105.916C164.702 105.916 165.398 105.708 166.022 105.292C166.662 104.876 167.166 104.316 167.534 103.612C167.918 102.892 168.11 102.1 168.11 101.236C168.11 100.372 167.918 99.588 167.534 98.884C167.166 98.18 166.662 97.62 166.022 97.204C165.398 96.788 164.702 96.58 163.934 96.58C163.166 96.58 162.47 96.796 161.846 97.228C161.222 97.644 160.718 98.204 160.334 98.908C159.966 99.612 159.782 100.404 159.782 101.284ZM189.771 107.5H187.659V100.492C187.659 99.164 187.451 98.196 187.035 97.588C186.635 96.964 186.019 96.652 185.187 96.652C184.611 96.652 184.035 96.796 183.459 97.084C182.899 97.372 182.395 97.764 181.947 98.26C181.515 98.74 181.203 99.3 181.011 99.94V107.5H178.899V94.972H180.819V97.66C181.155 97.068 181.587 96.556 182.115 96.124C182.643 95.692 183.243 95.356 183.915 95.116C184.587 94.876 185.291 94.756 186.027 94.756C186.747 94.756 187.347 94.892 187.827 95.164C188.323 95.42 188.707 95.788 188.979 96.268C189.267 96.732 189.467 97.284 189.579 97.924C189.707 98.564 189.771 99.26 189.771 100.012V107.5ZM192.072 103.876C192.072 103.076 192.296 102.388 192.744 101.812C193.208 101.22 193.84 100.764 194.64 100.444C195.44 100.124 196.368 99.964 197.424 99.964C197.984 99.964 198.576 100.012 199.2 100.108C199.824 100.188 200.376 100.316 200.856 100.492V99.58C200.856 98.62 200.568 97.868 199.992 97.324C199.416 96.764 198.6 96.484 197.544 96.484C196.856 96.484 196.192 96.612 195.552 96.868C194.928 97.108 194.264 97.46 193.56 97.924L192.792 96.436C193.608 95.876 194.424 95.46 195.24 95.188C196.056 94.9 196.904 94.756 197.784 94.756C199.384 94.756 200.648 95.204 201.576 96.1C202.504 96.98 202.968 98.212 202.968 99.796V105.1C202.968 105.356 203.016 105.548 203.112 105.676C203.224 105.788 203.4 105.852 203.64 105.868V107.5C203.432 107.532 203.248 107.556 203.088 107.572C202.944 107.588 202.824 107.596 202.728 107.596C202.232 107.596 201.856 107.46 201.6 107.188C201.36 106.916 201.224 106.628 201.192 106.324L201.144 105.532C200.6 106.236 199.888 106.78 199.008 107.164C198.128 107.548 197.256 107.74 196.392 107.74C195.56 107.74 194.816 107.572 194.16 107.236C193.504 106.884 192.992 106.42 192.624 105.844C192.256 105.252 192.072 104.596 192.072 103.876ZM200.232 104.764C200.424 104.54 200.576 104.316 200.688 104.092C200.8 103.852 200.856 103.652 200.856 103.492V101.932C200.36 101.74 199.84 101.596 199.296 101.5C198.752 101.388 198.216 101.332 197.688 101.332C196.616 101.332 195.744 101.548 195.072 101.98C194.416 102.396 194.088 102.972 194.088 103.708C194.088 104.108 194.192 104.5 194.4 104.884C194.624 105.252 194.944 105.556 195.36 105.796C195.792 106.036 196.32 106.156 196.944 106.156C197.6 106.156 198.224 106.028 198.816 105.772C199.408 105.5 199.88 105.164 200.232 104.764ZM75.1268 136.5H73.0148V129.492C73.0148 128.212 72.7828 127.252 72.3188 126.612C71.8708 125.972 71.2228 125.652 70.3748 125.652C69.8308 125.652 69.2788 125.796 68.7188 126.084C68.1748 126.372 67.6948 126.764 67.2788 127.26C66.8628 127.74 66.5588 128.3 66.3668 128.94V136.5H64.2548V118.98H66.3668V126.66C66.8628 125.764 67.5348 125.06 68.3828 124.548C69.2468 124.02 70.1748 123.756 71.1668 123.756C71.9188 123.756 72.5428 123.892 73.0388 124.164C73.5508 124.42 73.9588 124.788 74.2628 125.268C74.5668 125.748 74.7828 126.308 74.9108 126.948C75.0548 127.572 75.1268 128.26 75.1268 129.012V136.5ZM83.883 136.74C82.939 136.74 82.083 136.572 81.315 136.236C80.547 135.884 79.883 135.412 79.323 134.82C78.763 134.212 78.331 133.516 78.027 132.732C77.723 131.948 77.571 131.124 77.571 130.26C77.571 129.38 77.723 128.548 78.027 127.764C78.331 126.98 78.763 126.292 79.323 125.7C79.883 125.092 80.547 124.62 81.315 124.284C82.099 123.932 82.955 123.756 83.883 123.756C84.827 123.756 85.683 123.932 86.451 124.284C87.219 124.62 87.883 125.092 88.443 125.7C89.019 126.292 89.459 126.98 89.763 127.764C90.067 128.548 90.219 129.38 90.219 130.26C90.219 131.124 90.067 131.948 89.763 132.732C89.459 133.516 89.027 134.212 88.467 134.82C87.907 135.412 87.235 135.884 86.451 136.236C85.683 136.572 84.827 136.74 83.883 136.74ZM79.731 130.284C79.731 131.148 79.915 131.932 80.283 132.636C80.667 133.34 81.171 133.9 81.795 134.316C82.419 134.716 83.115 134.916 83.883 134.916C84.651 134.916 85.347 134.708 85.971 134.292C86.611 133.876 87.115 133.316 87.483 132.612C87.867 131.892 88.059 131.1 88.059 130.236C88.059 129.372 87.867 128.588 87.483 127.884C87.115 127.18 86.611 126.62 85.971 126.204C85.347 125.788 84.651 125.58 83.883 125.58C83.115 125.58 82.419 125.796 81.795 126.228C81.171 126.644 80.667 127.204 80.283 127.908C79.915 128.612 79.731 129.404 79.731 130.284ZM99.4022 125.82C98.3462 125.836 97.4102 126.108 96.5942 126.636C95.7942 127.148 95.2262 127.86 94.8902 128.772V136.5H92.7782V123.972H94.7462V126.876C95.1782 126.012 95.7462 125.316 96.4502 124.788C97.1702 124.244 97.9222 123.94 98.7062 123.876C98.8662 123.876 99.0022 123.876 99.1142 123.876C99.2262 123.876 99.3222 123.884 99.4022 123.9V125.82ZM101.497 136.5V123.972H103.609V136.5H101.497ZM101.497 121.62V118.98H103.609V121.62H101.497ZM106.044 135.132L113.94 125.508H106.26V123.972H116.316V125.34L108.468 134.964H116.34V136.5H106.044V135.132ZM124.102 136.74C123.158 136.74 122.302 136.572 121.534 136.236C120.766 135.884 120.102 135.412 119.542 134.82C118.982 134.212 118.55 133.516 118.246 132.732C117.942 131.948 117.79 131.124 117.79 130.26C117.79 129.38 117.942 128.548 118.246 127.764C118.55 126.98 118.982 126.292 119.542 125.7C120.102 125.092 120.766 124.62 121.534 124.284C122.318 123.932 123.174 123.756 124.102 123.756C125.046 123.756 125.902 123.932 126.67 124.284C127.438 124.62 128.102 125.092 128.662 125.7C129.238 126.292 129.678 126.98 129.982 127.764C130.286 128.548 130.438 129.38 130.438 130.26C130.438 131.124 130.286 131.948 129.982 132.732C129.678 133.516 129.246 134.212 128.686 134.82C128.126 135.412 127.454 135.884 126.67 136.236C125.902 136.572 125.046 136.74 124.102 136.74ZM119.95 130.284C119.95 131.148 120.134 131.932 120.502 132.636C120.886 133.34 121.39 133.9 122.014 134.316C122.638 134.716 123.334 134.916 124.102 134.916C124.87 134.916 125.566 134.708 126.19 134.292C126.83 133.876 127.334 133.316 127.702 132.612C128.086 131.892 128.278 131.1 128.278 130.236C128.278 129.372 128.086 128.588 127.702 127.884C127.334 127.18 126.83 126.62 126.19 126.204C125.566 125.788 124.87 125.58 124.102 125.58C123.334 125.58 122.638 125.796 122.014 126.228C121.39 126.644 120.886 127.204 120.502 127.908C120.134 128.612 119.95 129.404 119.95 130.284ZM143.869 136.5H141.757V129.492C141.757 128.164 141.549 127.196 141.133 126.588C140.733 125.964 140.117 125.652 139.285 125.652C138.709 125.652 138.133 125.796 137.557 126.084C136.997 126.372 136.493 126.764 136.045 127.26C135.613 127.74 135.301 128.3 135.109 128.94V136.5H132.997V123.972H134.917V126.66C135.253 126.068 135.685 125.556 136.213 125.124C136.741 124.692 137.341 124.356 138.013 124.116C138.685 123.876 139.389 123.756 140.125 123.756C140.845 123.756 141.445 123.892 141.925 124.164C142.421 124.42 142.805 124.788 143.077 125.268C143.365 125.732 143.565 126.284 143.677 126.924C143.805 127.564 143.869 128.26 143.869 129.012V136.5ZM153.516 135.876C153.34 135.956 153.1 136.06 152.796 136.188C152.492 136.316 152.14 136.428 151.74 136.524C151.34 136.62 150.916 136.668 150.468 136.668C149.956 136.668 149.484 136.58 149.052 136.404C148.62 136.212 148.276 135.924 148.02 135.54C147.764 135.14 147.636 134.644 147.636 134.052V125.628H145.932V123.972H147.636V119.796H149.748V123.972H152.556V125.628H149.748V133.404C149.78 133.852 149.932 134.188 150.204 134.412C150.476 134.62 150.796 134.724 151.164 134.724C151.58 134.724 151.964 134.652 152.316 134.508C152.668 134.364 152.9 134.26 153.012 134.196L153.516 135.876ZM154.49 132.876C154.49 132.076 154.714 131.388 155.162 130.812C155.626 130.22 156.258 129.764 157.058 129.444C157.858 129.124 158.786 128.964 159.842 128.964C160.402 128.964 160.994 129.012 161.618 129.108C162.242 129.188 162.794 129.316 163.274 129.492V128.58C163.274 127.62 162.986 126.868 162.41 126.324C161.834 125.764 161.018 125.484 159.962 125.484C159.274 125.484 158.61 125.612 157.97 125.868C157.346 126.108 156.682 126.46 155.978 126.924L155.21 125.436C156.026 124.876 156.842 124.46 157.658 124.188C158.474 123.9 159.322 123.756 160.202 123.756C161.802 123.756 163.066 124.204 163.994 125.1C164.922 125.98 165.386 127.212 165.386 128.796V134.1C165.386 134.356 165.434 134.548 165.53 134.676C165.642 134.788 165.818 134.852 166.058 134.868V136.5C165.85 136.532 165.666 136.556 165.506 136.572C165.362 136.588 165.242 136.596 165.146 136.596C164.65 136.596 164.274 136.46 164.018 136.188C163.778 135.916 163.642 135.628 163.61 135.324L163.562 134.532C163.018 135.236 162.306 135.78 161.426 136.164C160.546 136.548 159.674 136.74 158.81 136.74C157.978 136.74 157.234 136.572 156.578 136.236C155.922 135.884 155.41 135.42 155.042 134.844C154.674 134.252 154.49 133.596 154.49 132.876ZM162.65 133.764C162.842 133.54 162.994 133.316 163.106 133.092C163.218 132.852 163.274 132.652 163.274 132.492V130.932C162.778 130.74 162.258 130.596 161.714 130.5C161.17 130.388 160.634 130.332 160.106 130.332C159.034 130.332 158.162 130.548 157.49 130.98C156.834 131.396 156.506 131.972 156.506 132.708C156.506 133.108 156.61 133.5 156.818 133.884C157.042 134.252 157.362 134.556 157.778 134.796C158.21 135.036 158.738 135.156 159.362 135.156C160.018 135.156 160.642 135.028 161.234 134.772C161.826 134.5 162.298 134.164 162.65 133.764ZM168.811 118.98H170.923V133.26C170.923 133.948 171.019 134.372 171.211 134.532C171.403 134.692 171.635 134.772 171.907 134.772C172.243 134.772 172.563 134.74 172.867 134.676C173.171 134.596 173.427 134.516 173.635 134.436L173.971 136.164C173.619 136.308 173.203 136.428 172.723 136.524C172.243 136.62 171.819 136.668 171.451 136.668C170.635 136.668 169.987 136.436 169.507 135.972C169.043 135.508 168.811 134.86 168.811 134.028V118.98ZM186.518 136.74C185.574 136.74 184.71 136.572 183.926 136.236C183.158 135.884 182.486 135.412 181.91 134.82C181.35 134.212 180.91 133.516 180.59 132.732C180.286 131.948 180.134 131.116 180.134 130.236C180.134 129.052 180.406 127.972 180.95 126.996C181.494 126.02 182.246 125.236 183.206 124.644C184.182 124.052 185.294 123.756 186.542 123.756C187.806 123.756 188.902 124.06 189.83 124.668C190.774 125.26 191.502 126.044 192.014 127.02C192.542 127.98 192.806 129.02 192.806 130.14C192.806 130.3 192.798 130.46 192.782 130.62C192.782 130.764 192.774 130.876 192.758 130.956H182.366C182.43 131.772 182.654 132.5 183.038 133.14C183.438 133.764 183.95 134.26 184.574 134.628C185.198 134.98 185.87 135.156 186.59 135.156C187.358 135.156 188.078 134.964 188.75 134.58C189.438 134.196 189.91 133.692 190.166 133.068L191.99 133.572C191.718 134.18 191.31 134.724 190.766 135.204C190.238 135.684 189.606 136.06 188.87 136.332C188.15 136.604 187.366 136.74 186.518 136.74ZM182.294 129.492H190.838C190.774 128.676 190.542 127.956 190.142 127.332C189.742 126.708 189.23 126.22 188.606 125.868C187.982 125.516 187.294 125.34 186.542 125.34C185.806 125.34 185.126 125.516 184.502 125.868C183.878 126.22 183.366 126.708 182.966 127.332C182.582 127.956 182.358 128.676 182.294 129.492ZM26.7253 165.74C25.7013 165.74 24.7893 165.484 23.9893 164.972C23.1893 164.46 22.5573 163.812 22.0933 163.028V170.612H19.9813V152.972H21.8533V155.324C22.3493 154.556 22.9973 153.94 23.7973 153.476C24.5973 152.996 25.4693 152.756 26.4133 152.756C27.2773 152.756 28.0693 152.932 28.7893 153.284C29.5093 153.636 30.1333 154.116 30.6613 154.724C31.1893 155.332 31.5973 156.028 31.8853 156.812C32.1893 157.58 32.3413 158.388 32.3413 159.236C32.3413 160.42 32.1013 161.508 31.6213 162.5C31.1573 163.492 30.5013 164.284 29.6533 164.876C28.8053 165.452 27.8293 165.74 26.7253 165.74ZM26.0773 163.916C26.7013 163.916 27.2613 163.788 27.7573 163.532C28.2693 163.26 28.7013 162.908 29.0533 162.476C29.4213 162.028 29.7013 161.524 29.8933 160.964C30.0853 160.404 30.1813 159.828 30.1813 159.236C30.1813 158.612 30.0693 158.02 29.8453 157.46C29.6373 156.9 29.3333 156.404 28.9333 155.972C28.5493 155.54 28.0933 155.204 27.5653 154.964C27.0533 154.708 26.4933 154.58 25.8853 154.58C25.5013 154.58 25.1013 154.652 24.6853 154.796C24.2853 154.94 23.9013 155.148 23.5333 155.42C23.1653 155.676 22.8533 155.972 22.5973 156.308C22.3413 156.644 22.1733 157.004 22.0933 157.388V160.964C22.3333 161.508 22.6533 162.004 23.0533 162.452C23.4533 162.9 23.9173 163.26 24.4453 163.532C24.9733 163.788 25.5173 163.916 26.0773 163.916ZM40.4065 165.74C39.4625 165.74 38.6065 165.572 37.8385 165.236C37.0705 164.884 36.4065 164.412 35.8465 163.82C35.2865 163.212 34.8545 162.516 34.5505 161.732C34.2465 160.948 34.0945 160.124 34.0945 159.26C34.0945 158.38 34.2465 157.548 34.5505 156.764C34.8545 155.98 35.2865 155.292 35.8465 154.7C36.4065 154.092 37.0705 153.62 37.8385 153.284C38.6225 152.932 39.4785 152.756 40.4065 152.756C41.3505 152.756 42.2065 152.932 42.9745 153.284C43.7425 153.62 44.4065 154.092 44.9665 154.7C45.5425 155.292 45.9825 155.98 46.2865 156.764C46.5905 157.548 46.7425 158.38 46.7425 159.26C46.7425 160.124 46.5905 160.948 46.2865 161.732C45.9825 162.516 45.5505 163.212 44.9905 163.82C44.4305 164.412 43.7585 164.884 42.9745 165.236C42.2065 165.572 41.3505 165.74 40.4065 165.74ZM36.2545 159.284C36.2545 160.148 36.4385 160.932 36.8065 161.636C37.1905 162.34 37.6945 162.9 38.3185 163.316C38.9425 163.716 39.6385 163.916 40.4065 163.916C41.1745 163.916 41.8705 163.708 42.4945 163.292C43.1345 162.876 43.6385 162.316 44.0065 161.612C44.3905 160.892 44.5825 160.1 44.5825 159.236C44.5825 158.372 44.3905 157.588 44.0065 156.884C43.6385 156.18 43.1345 155.62 42.4945 155.204C41.8705 154.788 41.1745 154.58 40.4065 154.58C39.6385 154.58 38.9425 154.796 38.3185 155.228C37.6945 155.644 37.1905 156.204 36.8065 156.908C36.4385 157.612 36.2545 158.404 36.2545 159.284ZM53.5977 165.74C52.5577 165.74 51.5817 165.572 50.6697 165.236C49.7577 164.884 48.9737 164.364 48.3177 163.676L49.1337 162.188C49.8537 162.86 50.5737 163.34 51.2937 163.628C52.0137 163.916 52.7497 164.06 53.5017 164.06C54.3657 164.06 55.0697 163.9 55.6137 163.58C56.1577 163.244 56.4297 162.756 56.4297 162.116C56.4297 161.652 56.2857 161.308 55.9977 161.084C55.7257 160.86 55.3337 160.676 54.8217 160.532C54.3097 160.372 53.7017 160.196 52.9977 160.004C52.1337 159.748 51.4057 159.476 50.8137 159.188C50.2217 158.9 49.7737 158.54 49.4697 158.108C49.1657 157.676 49.0137 157.132 49.0137 156.476C49.0137 155.676 49.2217 155.004 49.6377 154.46C50.0537 153.9 50.6217 153.476 51.3417 153.188C52.0777 152.9 52.9097 152.756 53.8377 152.756C54.7657 152.756 55.6057 152.9 56.3577 153.188C57.1097 153.476 57.7577 153.9 58.3017 154.46L57.3417 155.924C56.8457 155.412 56.3017 155.036 55.7097 154.796C55.1177 154.54 54.4537 154.412 53.7177 154.412C53.2857 154.412 52.8617 154.468 52.4457 154.58C52.0297 154.676 51.6857 154.86 51.4137 155.132C51.1417 155.388 51.0057 155.756 51.0057 156.236C51.0057 156.636 51.1097 156.956 51.3177 157.196C51.5417 157.42 51.8617 157.612 52.2777 157.772C52.7097 157.932 53.2297 158.108 53.8377 158.3C54.7817 158.572 55.5977 158.844 56.2857 159.116C56.9897 159.388 57.5337 159.74 57.9177 160.172C58.3017 160.604 58.4937 161.204 58.4937 161.972C58.4937 163.156 58.0457 164.084 57.1497 164.756C56.2537 165.412 55.0697 165.74 53.5977 165.74ZM61.0204 165.5V152.972H63.1324V165.5H61.0204ZM61.0204 150.62V147.98H63.1324V150.62H61.0204ZM72.0957 165.74C71.1517 165.74 70.2877 165.572 69.5037 165.236C68.7357 164.884 68.0637 164.404 67.4877 163.796C66.9277 163.188 66.4877 162.492 66.1677 161.708C65.8637 160.924 65.7117 160.092 65.7117 159.212C65.7117 158.028 65.9757 156.948 66.5037 155.972C67.0317 154.996 67.7757 154.22 68.7357 153.644C69.6957 153.052 70.8077 152.756 72.0717 152.756C73.3037 152.756 74.3757 153.036 75.2877 153.596C76.2157 154.14 76.9037 154.876 77.3517 155.804L75.2877 156.452C74.9677 155.86 74.5197 155.404 73.9437 155.084C73.3677 154.748 72.7277 154.58 72.0237 154.58C71.2557 154.58 70.5517 154.78 69.9117 155.18C69.2877 155.58 68.7917 156.132 68.4237 156.836C68.0557 157.524 67.8717 158.316 67.8717 159.212C67.8717 160.092 68.0557 160.892 68.4237 161.612C68.8077 162.316 69.3117 162.876 69.9357 163.292C70.5757 163.708 71.2797 163.916 72.0477 163.916C72.5437 163.916 73.0157 163.828 73.4637 163.652C73.9277 163.476 74.3277 163.244 74.6637 162.956C75.0157 162.652 75.2557 162.324 75.3837 161.972L77.4477 162.596C77.1917 163.204 76.7997 163.748 76.2717 164.228C75.7597 164.692 75.1437 165.06 74.4237 165.332C73.7197 165.604 72.9437 165.74 72.0957 165.74ZM79.8407 165.5V152.972H81.9527V165.5H79.8407ZM79.8407 150.62V147.98H81.9527V150.62H79.8407ZM90.844 165.74C89.9 165.74 89.044 165.572 88.276 165.236C87.508 164.884 86.844 164.412 86.284 163.82C85.724 163.212 85.292 162.516 84.988 161.732C84.684 160.948 84.532 160.124 84.532 159.26C84.532 158.38 84.684 157.548 84.988 156.764C85.292 155.98 85.724 155.292 86.284 154.7C86.844 154.092 87.508 153.62 88.276 153.284C89.06 152.932 89.916 152.756 90.844 152.756C91.788 152.756 92.644 152.932 93.412 153.284C94.18 153.62 94.844 154.092 95.404 154.7C95.98 155.292 96.42 155.98 96.724 156.764C97.028 157.548 97.18 158.38 97.18 159.26C97.18 160.124 97.028 160.948 96.724 161.732C96.42 162.516 95.988 163.212 95.428 163.82C94.868 164.412 94.196 164.884 93.412 165.236C92.644 165.572 91.788 165.74 90.844 165.74ZM86.692 159.284C86.692 160.148 86.876 160.932 87.244 161.636C87.628 162.34 88.132 162.9 88.756 163.316C89.38 163.716 90.076 163.916 90.844 163.916C91.612 163.916 92.308 163.708 92.932 163.292C93.572 162.876 94.076 162.316 94.444 161.612C94.828 160.892 95.02 160.1 95.02 159.236C95.02 158.372 94.828 157.588 94.444 156.884C94.076 156.18 93.572 155.62 92.932 155.204C92.308 154.788 91.612 154.58 90.844 154.58C90.076 154.58 89.38 154.796 88.756 155.228C88.132 155.644 87.628 156.204 87.244 156.908C86.876 157.612 86.692 158.404 86.692 159.284ZM110.611 165.5H108.499V158.492C108.499 157.164 108.291 156.196 107.875 155.588C107.475 154.964 106.859 154.652 106.027 154.652C105.451 154.652 104.875 154.796 104.299 155.084C103.739 155.372 103.235 155.764 102.787 156.26C102.355 156.74 102.043 157.3 101.851 157.94V165.5H99.7392V152.972H101.659V155.66C101.995 155.068 102.427 154.556 102.955 154.124C103.483 153.692 104.083 153.356 104.755 153.116C105.427 152.876 106.131 152.756 106.867 152.756C107.587 152.756 108.187 152.892 108.667 153.164C109.163 153.42 109.547 153.788 109.819 154.268C110.107 154.732 110.307 155.284 110.419 155.924C110.547 156.564 110.611 157.26 110.611 158.012V165.5ZM119.439 165.74C118.495 165.74 117.631 165.572 116.847 165.236C116.079 164.884 115.407 164.412 114.831 163.82C114.271 163.212 113.831 162.516 113.511 161.732C113.207 160.948 113.055 160.116 113.055 159.236C113.055 158.052 113.327 156.972 113.871 155.996C114.415 155.02 115.167 154.236 116.127 153.644C117.103 153.052 118.215 152.756 119.463 152.756C120.727 152.756 121.823 153.06 122.751 153.668C123.695 154.26 124.423 155.044 124.935 156.02C125.463 156.98 125.727 158.02 125.727 159.14C125.727 159.3 125.719 159.46 125.703 159.62C125.703 159.764 125.695 159.876 125.679 159.956H115.287C115.351 160.772 115.575 161.5 115.959 162.14C116.359 162.764 116.871 163.26 117.495 163.628C118.119 163.98 118.791 164.156 119.511 164.156C120.279 164.156 120.999 163.964 121.671 163.58C122.359 163.196 122.831 162.692 123.087 162.068L124.911 162.572C124.639 163.18 124.231 163.724 123.687 164.204C123.159 164.684 122.527 165.06 121.791 165.332C121.071 165.604 120.287 165.74 119.439 165.74ZM115.215 158.492H123.759C123.695 157.676 123.463 156.956 123.063 156.332C122.663 155.708 122.151 155.22 121.527 154.868C120.903 154.516 120.215 154.34 119.463 154.34C118.727 154.34 118.047 154.516 117.423 154.868C116.799 155.22 116.287 155.708 115.887 156.332C115.503 156.956 115.279 157.676 115.215 158.492ZM127.907 159.908V157.988H134.987V159.908H127.907ZM142.52 165.74C141.48 165.74 140.504 165.572 139.592 165.236C138.68 164.884 137.896 164.364 137.24 163.676L138.056 162.188C138.776 162.86 139.496 163.34 140.216 163.628C140.936 163.916 141.672 164.06 142.424 164.06C143.288 164.06 143.992 163.9 144.536 163.58C145.08 163.244 145.352 162.756 145.352 162.116C145.352 161.652 145.208 161.308 144.92 161.084C144.648 160.86 144.256 160.676 143.744 160.532C143.232 160.372 142.624 160.196 141.92 160.004C141.056 159.748 140.328 159.476 139.736 159.188C139.144 158.9 138.696 158.54 138.392 158.108C138.088 157.676 137.936 157.132 137.936 156.476C137.936 155.676 138.144 155.004 138.56 154.46C138.976 153.9 139.544 153.476 140.264 153.188C141 152.9 141.832 152.756 142.76 152.756C143.688 152.756 144.528 152.9 145.28 153.188C146.032 153.476 146.68 153.9 147.224 154.46L146.264 155.924C145.768 155.412 145.224 155.036 144.632 154.796C144.04 154.54 143.376 154.412 142.64 154.412C142.208 154.412 141.784 154.468 141.368 154.58C140.952 154.676 140.608 154.86 140.336 155.132C140.064 155.388 139.928 155.756 139.928 156.236C139.928 156.636 140.032 156.956 140.24 157.196C140.464 157.42 140.784 157.612 141.2 157.772C141.632 157.932 142.152 158.108 142.76 158.3C143.704 158.572 144.52 158.844 145.208 159.116C145.912 159.388 146.456 159.74 146.84 160.172C147.224 160.604 147.416 161.204 147.416 161.972C147.416 163.156 146.968 164.084 146.072 164.756C145.176 165.412 143.992 165.74 142.52 165.74ZM155.486 165.74C154.542 165.74 153.678 165.572 152.894 165.236C152.126 164.884 151.454 164.412 150.878 163.82C150.318 163.212 149.878 162.516 149.558 161.732C149.254 160.948 149.102 160.116 149.102 159.236C149.102 158.052 149.374 156.972 149.918 155.996C150.462 155.02 151.214 154.236 152.174 153.644C153.15 153.052 154.262 152.756 155.51 152.756C156.774 152.756 157.87 153.06 158.798 153.668C159.742 154.26 160.47 155.044 160.982 156.02C161.51 156.98 161.774 158.02 161.774 159.14C161.774 159.3 161.766 159.46 161.75 159.62C161.75 159.764 161.742 159.876 161.726 159.956H151.334C151.398 160.772 151.622 161.5 152.006 162.14C152.406 162.764 152.918 163.26 153.542 163.628C154.166 163.98 154.838 164.156 155.558 164.156C156.326 164.156 157.046 163.964 157.718 163.58C158.406 163.196 158.878 162.692 159.134 162.068L160.958 162.572C160.686 163.18 160.278 163.724 159.734 164.204C159.206 164.684 158.574 165.06 157.838 165.332C157.118 165.604 156.334 165.74 155.486 165.74ZM151.262 158.492H159.806C159.742 157.676 159.51 156.956 159.11 156.332C158.71 155.708 158.198 155.22 157.574 154.868C156.95 154.516 156.262 154.34 155.51 154.34C154.774 154.34 154.094 154.516 153.47 154.868C152.846 155.22 152.334 155.708 151.934 156.332C151.55 156.956 151.326 157.676 151.262 158.492ZM169.208 161.876C169.208 161.076 169.432 160.388 169.88 159.812C170.344 159.22 170.976 158.764 171.776 158.444C172.576 158.124 173.504 157.964 174.56 157.964C175.12 157.964 175.712 158.012 176.336 158.108C176.96 158.188 177.512 158.316 177.992 158.492V157.58C177.992 156.62 177.704 155.868 177.128 155.324C176.552 154.764 175.736 154.484 174.68 154.484C173.992 154.484 173.328 154.612 172.688 154.868C172.064 155.108 171.4 155.46 170.696 155.924L169.928 154.436C170.744 153.876 171.56 153.46 172.376 153.188C173.192 152.9 174.04 152.756 174.92 152.756C176.52 152.756 177.784 153.204 178.712 154.1C179.64 154.98 180.104 156.212 180.104 157.796V163.1C180.104 163.356 180.152 163.548 180.248 163.676C180.36 163.788 180.536 163.852 180.776 163.868V165.5C180.568 165.532 180.384 165.556 180.224 165.572C180.08 165.588 179.96 165.596 179.864 165.596C179.368 165.596 178.992 165.46 178.736 165.188C178.496 164.916 178.36 164.628 178.328 164.324L178.28 163.532C177.736 164.236 177.024 164.78 176.144 165.164C175.264 165.548 174.392 165.74 173.528 165.74C172.696 165.74 171.952 165.572 171.296 165.236C170.64 164.884 170.128 164.42 169.76 163.844C169.392 163.252 169.208 162.596 169.208 161.876ZM177.368 162.764C177.56 162.54 177.712 162.316 177.824 162.092C177.936 161.852 177.992 161.652 177.992 161.492V159.932C177.496 159.74 176.976 159.596 176.432 159.5C175.888 159.388 175.352 159.332 174.824 159.332C173.752 159.332 172.88 159.548 172.208 159.98C171.552 160.396 171.224 160.972 171.224 161.708C171.224 162.108 171.328 162.5 171.536 162.884C171.76 163.252 172.08 163.556 172.496 163.796C172.928 164.036 173.456 164.156 174.08 164.156C174.736 164.156 175.36 164.028 175.952 163.772C176.544 163.5 177.016 163.164 177.368 162.764ZM189.432 160.484V152.972H191.544V160.076C191.544 161.356 191.768 162.316 192.216 162.956C192.664 163.596 193.328 163.916 194.208 163.916C194.784 163.916 195.336 163.796 195.864 163.556C196.408 163.3 196.896 162.94 197.328 162.476C197.76 162.012 198.096 161.46 198.336 160.82V152.972H200.448V163.1C200.448 163.356 200.496 163.548 200.592 163.676C200.704 163.788 200.88 163.852 201.12 163.868V165.5C200.88 165.532 200.688 165.548 200.544 165.548C200.416 165.564 200.288 165.572 200.16 165.572C199.76 165.572 199.416 165.452 199.128 165.212C198.84 164.956 198.688 164.644 198.672 164.276L198.624 162.812C198.08 163.74 197.344 164.46 196.416 164.972C195.504 165.484 194.504 165.74 193.416 165.74C192.104 165.74 191.112 165.3 190.44 164.42C189.768 163.524 189.432 162.212 189.432 160.484ZM222.854 165.5H220.742V158.492C220.742 157.18 220.526 156.212 220.094 155.588C219.678 154.964 219.054 154.652 218.222 154.652C217.374 154.652 216.606 154.964 215.918 155.588C215.23 156.196 214.742 156.988 214.454 157.964V165.5H212.342V158.492C212.342 157.164 212.134 156.196 211.718 155.588C211.302 154.964 210.678 154.652 209.846 154.652C209.014 154.652 208.246 154.956 207.542 155.564C206.854 156.156 206.366 156.948 206.078 157.94V165.5H203.966V152.972H205.886V155.66C206.398 154.732 207.062 154.02 207.878 153.524C208.694 153.012 209.614 152.756 210.638 152.756C211.678 152.756 212.51 153.044 213.134 153.62C213.758 154.18 214.142 154.908 214.286 155.804C214.846 154.812 215.526 154.06 216.326 153.548C217.126 153.02 218.038 152.756 219.062 152.756C219.782 152.756 220.382 152.892 220.862 153.164C221.358 153.42 221.75 153.788 222.038 154.268C222.326 154.732 222.534 155.284 222.662 155.924C222.79 156.564 222.854 157.26 222.854 158.012V165.5ZM225.154 161.876C225.154 161.076 225.378 160.388 225.826 159.812C226.29 159.22 226.922 158.764 227.722 158.444C228.522 158.124 229.45 157.964 230.506 157.964C231.066 157.964 231.658 158.012 232.282 158.108C232.906 158.188 233.458 158.316 233.938 158.492V157.58C233.938 156.62 233.65 155.868 233.074 155.324C232.498 154.764 231.682 154.484 230.626 154.484C229.938 154.484 229.274 154.612 228.634 154.868C228.01 155.108 227.346 155.46 226.642 155.924L225.874 154.436C226.69 153.876 227.506 153.46 228.322 153.188C229.138 152.9 229.986 152.756 230.866 152.756C232.466 152.756 233.73 153.204 234.658 154.1C235.586 154.98 236.05 156.212 236.05 157.796V163.1C236.05 163.356 236.098 163.548 236.194 163.676C236.306 163.788 236.482 163.852 236.722 163.868V165.5C236.514 165.532 236.33 165.556 236.17 165.572C236.026 165.588 235.906 165.596 235.81 165.596C235.314 165.596 234.938 165.46 234.682 165.188C234.442 164.916 234.306 164.628 234.274 164.324L234.226 163.532C233.682 164.236 232.97 164.78 232.09 165.164C231.21 165.548 230.338 165.74 229.474 165.74C228.642 165.74 227.898 165.572 227.242 165.236C226.586 164.884 226.074 164.42 225.706 163.844C225.338 163.252 225.154 162.596 225.154 161.876ZM233.314 162.764C233.506 162.54 233.658 162.316 233.77 162.092C233.882 161.852 233.938 161.652 233.938 161.492V159.932C233.442 159.74 232.922 159.596 232.378 159.5C231.834 159.388 231.298 159.332 230.77 159.332C229.698 159.332 228.826 159.548 228.154 159.98C227.498 160.396 227.17 160.972 227.17 161.708C227.17 162.108 227.274 162.5 227.482 162.884C227.706 163.252 228.026 163.556 228.442 163.796C228.874 164.036 229.402 164.156 230.026 164.156C230.682 164.156 231.306 164.028 231.898 163.772C232.49 163.5 232.962 163.164 233.314 162.764ZM18.8841 188.26C18.8841 187.076 19.1241 185.996 19.6041 185.02C20.1001 184.028 20.7721 183.236 21.6201 182.644C22.4841 182.052 23.4681 181.756 24.5721 181.756C25.5801 181.756 26.4841 182.02 27.2841 182.548C28.0841 183.076 28.7081 183.716 29.1561 184.468V176.98H31.2681V192.1C31.2681 192.356 31.3161 192.548 31.4121 192.676C31.5241 192.788 31.7001 192.852 31.9401 192.868V194.5C31.5401 194.564 31.2281 194.596 31.0041 194.596C30.5881 194.596 30.2201 194.452 29.9001 194.164C29.5961 193.876 29.4441 193.556 29.4441 193.204V192.148C28.9481 192.948 28.2841 193.58 27.4521 194.044C26.6201 194.508 25.7561 194.74 24.8601 194.74C23.9961 194.74 23.1961 194.572 22.4601 194.236C21.7401 193.884 21.1081 193.404 20.5641 192.796C20.0361 192.188 19.6201 191.5 19.3161 190.732C19.0281 189.948 18.8841 189.124 18.8841 188.26ZM29.1561 190.108V186.508C28.9641 185.964 28.6521 185.476 28.2201 185.044C27.7881 184.596 27.3001 184.244 26.7561 183.988C26.2281 183.716 25.7001 183.58 25.1721 183.58C24.5481 183.58 23.9801 183.716 23.4681 183.988C22.9721 184.244 22.5401 184.596 22.1721 185.044C21.8201 185.476 21.5481 185.972 21.3561 186.532C21.1641 187.092 21.0681 187.676 21.0681 188.284C21.0681 188.908 21.1721 189.5 21.3801 190.06C21.6041 190.62 21.9081 191.116 22.2921 191.548C22.6921 191.98 23.1481 192.316 23.6601 192.556C24.1881 192.796 24.7561 192.916 25.3641 192.916C25.7481 192.916 26.1401 192.844 26.5401 192.7C26.9561 192.556 27.3481 192.356 27.7161 192.1C28.0841 191.844 28.3961 191.548 28.6521 191.212C28.9081 190.86 29.0761 190.492 29.1561 190.108ZM34.7938 194.5V181.972H36.9058V194.5H34.7938ZM34.7938 179.62V176.98H36.9058V179.62H34.7938ZM44.6211 194.74C43.5811 194.74 42.6051 194.572 41.6931 194.236C40.7811 193.884 39.9971 193.364 39.3411 192.676L40.1571 191.188C40.8771 191.86 41.5971 192.34 42.3171 192.628C43.0371 192.916 43.7731 193.06 44.5251 193.06C45.3891 193.06 46.0931 192.9 46.6371 192.58C47.1811 192.244 47.4531 191.756 47.4531 191.116C47.4531 190.652 47.3091 190.308 47.0211 190.084C46.7491 189.86 46.3571 189.676 45.8451 189.532C45.3331 189.372 44.7251 189.196 44.0211 189.004C43.1571 188.748 42.4291 188.476 41.8371 188.188C41.2451 187.9 40.7971 187.54 40.4931 187.108C40.1891 186.676 40.0371 186.132 40.0371 185.476C40.0371 184.676 40.2451 184.004 40.6611 183.46C41.0771 182.9 41.6451 182.476 42.3651 182.188C43.1011 181.9 43.9331 181.756 44.8611 181.756C45.7891 181.756 46.6291 181.9 47.3811 182.188C48.1331 182.476 48.7811 182.9 49.3251 183.46L48.3651 184.924C47.8691 184.412 47.3251 184.036 46.7331 183.796C46.1411 183.54 45.4771 183.412 44.7411 183.412C44.3091 183.412 43.8851 183.468 43.4691 183.58C43.0531 183.676 42.7091 183.86 42.4371 184.132C42.1651 184.388 42.0291 184.756 42.0291 185.236C42.0291 185.636 42.1331 185.956 42.3411 186.196C42.5651 186.42 42.8851 186.612 43.3011 186.772C43.7331 186.932 44.2531 187.108 44.8611 187.3C45.8051 187.572 46.6211 187.844 47.3091 188.116C48.0131 188.388 48.5571 188.74 48.9411 189.172C49.3251 189.604 49.5171 190.204 49.5171 190.972C49.5171 192.156 49.0691 193.084 48.1731 193.756C47.2771 194.412 46.0931 194.74 44.6211 194.74ZM58.5238 193.876C58.3478 193.956 58.1078 194.06 57.8038 194.188C57.4998 194.316 57.1478 194.428 56.7478 194.524C56.3478 194.62 55.9238 194.668 55.4758 194.668C54.9638 194.668 54.4918 194.58 54.0598 194.404C53.6278 194.212 53.2838 193.924 53.0278 193.54C52.7718 193.14 52.6438 192.644 52.6438 192.052V183.628H50.9398V181.972H52.6438V177.796H54.7558V181.972H57.5638V183.628H54.7558V191.404C54.7878 191.852 54.9398 192.188 55.2118 192.412C55.4838 192.62 55.8038 192.724 56.1718 192.724C56.5878 192.724 56.9718 192.652 57.3238 192.508C57.6758 192.364 57.9078 192.26 58.0198 192.196L58.5238 193.876ZM59.4973 190.876C59.4973 190.076 59.7213 189.388 60.1693 188.812C60.6333 188.22 61.2653 187.764 62.0653 187.444C62.8653 187.124 63.7933 186.964 64.8493 186.964C65.4093 186.964 66.0013 187.012 66.6253 187.108C67.2493 187.188 67.8013 187.316 68.2813 187.492V186.58C68.2813 185.62 67.9933 184.868 67.4173 184.324C66.8413 183.764 66.0253 183.484 64.9693 183.484C64.2813 183.484 63.6173 183.612 62.9773 183.868C62.3533 184.108 61.6893 184.46 60.9853 184.924L60.2173 183.436C61.0333 182.876 61.8493 182.46 62.6653 182.188C63.4813 181.9 64.3293 181.756 65.2093 181.756C66.8093 181.756 68.0733 182.204 69.0013 183.1C69.9293 183.98 70.3933 185.212 70.3933 186.796V192.1C70.3933 192.356 70.4413 192.548 70.5373 192.676C70.6493 192.788 70.8253 192.852 71.0653 192.868V194.5C70.8573 194.532 70.6733 194.556 70.5133 194.572C70.3693 194.588 70.2493 194.596 70.1533 194.596C69.6573 194.596 69.2813 194.46 69.0253 194.188C68.7853 193.916 68.6493 193.628 68.6173 193.324L68.5693 192.532C68.0253 193.236 67.3133 193.78 66.4333 194.164C65.5533 194.548 64.6813 194.74 63.8173 194.74C62.9853 194.74 62.2413 194.572 61.5853 194.236C60.9293 193.884 60.4173 193.42 60.0493 192.844C59.6813 192.252 59.4973 191.596 59.4973 190.876ZM67.6573 191.764C67.8493 191.54 68.0013 191.316 68.1133 191.092C68.2253 190.852 68.2813 190.652 68.2813 190.492V188.932C67.7853 188.74 67.2653 188.596 66.7213 188.5C66.1773 188.388 65.6413 188.332 65.1133 188.332C64.0413 188.332 63.1693 188.548 62.4973 188.98C61.8413 189.396 61.5133 189.972 61.5133 190.708C61.5133 191.108 61.6173 191.5 61.8253 191.884C62.0493 192.252 62.3693 192.556 62.7853 192.796C63.2173 193.036 63.7453 193.156 64.3693 193.156C65.0253 193.156 65.6493 193.028 66.2413 192.772C66.8333 192.5 67.3053 192.164 67.6573 191.764ZM61.9693 179.14L64.3933 176.98H65.9293L68.3533 179.14L67.2013 179.716L65.1613 178.204L63.1213 179.716L61.9693 179.14ZM84.6424 194.5H82.5304V187.492C82.5304 186.164 82.3224 185.196 81.9064 184.588C81.5064 183.964 80.8904 183.652 80.0584 183.652C79.4824 183.652 78.9064 183.796 78.3304 184.084C77.7704 184.372 77.2664 184.764 76.8184 185.26C76.3864 185.74 76.0744 186.3 75.8824 186.94V194.5H73.7704V181.972H75.6904V184.66C76.0264 184.068 76.4584 183.556 76.9864 183.124C77.5144 182.692 78.1144 182.356 78.7864 182.116C79.4584 181.876 80.1624 181.756 80.8984 181.756C81.6184 181.756 82.2184 181.892 82.6984 182.164C83.1944 182.42 83.5784 182.788 83.8504 183.268C84.1384 183.732 84.3384 184.284 84.4504 184.924C84.5784 185.564 84.6424 186.26 84.6424 187.012V194.5ZM93.4707 194.74C92.5267 194.74 91.6627 194.572 90.8787 194.236C90.1107 193.884 89.4387 193.404 88.8627 192.796C88.3027 192.188 87.8627 191.492 87.5427 190.708C87.2387 189.924 87.0867 189.092 87.0867 188.212C87.0867 187.028 87.3507 185.948 87.8787 184.972C88.4067 183.996 89.1507 183.22 90.1107 182.644C91.0707 182.052 92.1827 181.756 93.4467 181.756C94.6787 181.756 95.7507 182.036 96.6627 182.596C97.5907 183.14 98.2787 183.876 98.7267 184.804L96.6627 185.452C96.3427 184.86 95.8947 184.404 95.3187 184.084C94.7427 183.748 94.1027 183.58 93.3987 183.58C92.6307 183.58 91.9267 183.78 91.2867 184.18C90.6627 184.58 90.1667 185.132 89.7987 185.836C89.4307 186.524 89.2467 187.316 89.2467 188.212C89.2467 189.092 89.4307 189.892 89.7987 190.612C90.1827 191.316 90.6867 191.876 91.3107 192.292C91.9507 192.708 92.6547 192.916 93.4227 192.916C93.9187 192.916 94.3907 192.828 94.8387 192.652C95.3027 192.476 95.7027 192.244 96.0387 191.956C96.3907 191.652 96.6307 191.324 96.7587 190.972L98.8227 191.596C98.5667 192.204 98.1747 192.748 97.6467 193.228C97.1347 193.692 96.5187 194.06 95.7987 194.332C95.0947 194.604 94.3187 194.74 93.4707 194.74ZM101.216 194.5V181.972H103.328V194.5H101.216ZM101.216 179.62V176.98H103.328V179.62H101.216ZM105.763 190.876C105.763 190.076 105.987 189.388 106.435 188.812C106.899 188.22 107.531 187.764 108.331 187.444C109.131 187.124 110.059 186.964 111.115 186.964C111.675 186.964 112.267 187.012 112.891 187.108C113.515 187.188 114.067 187.316 114.547 187.492V186.58C114.547 185.62 114.259 184.868 113.683 184.324C113.107 183.764 112.291 183.484 111.235 183.484C110.547 183.484 109.883 183.612 109.243 183.868C108.619 184.108 107.955 184.46 107.251 184.924L106.483 183.436C107.299 182.876 108.115 182.46 108.931 182.188C109.747 181.9 110.595 181.756 111.475 181.756C113.075 181.756 114.339 182.204 115.267 183.1C116.195 183.98 116.659 185.212 116.659 186.796V192.1C116.659 192.356 116.707 192.548 116.803 192.676C116.915 192.788 117.091 192.852 117.331 192.868V194.5C117.123 194.532 116.939 194.556 116.779 194.572C116.635 194.588 116.515 194.596 116.419 194.596C115.923 194.596 115.547 194.46 115.291 194.188C115.051 193.916 114.915 193.628 114.883 193.324L114.835 192.532C114.291 193.236 113.579 193.78 112.699 194.164C111.819 194.548 110.947 194.74 110.083 194.74C109.251 194.74 108.507 194.572 107.851 194.236C107.195 193.884 106.683 193.42 106.315 192.844C105.947 192.252 105.763 191.596 105.763 190.876ZM113.923 191.764C114.115 191.54 114.267 191.316 114.379 191.092C114.491 190.852 114.547 190.652 114.547 190.492V188.932C114.051 188.74 113.531 188.596 112.987 188.5C112.443 188.388 111.907 188.332 111.379 188.332C110.307 188.332 109.435 188.548 108.763 188.98C108.107 189.396 107.779 189.972 107.779 190.708C107.779 191.108 107.883 191.5 108.091 191.884C108.315 192.252 108.635 192.556 109.051 192.796C109.483 193.036 110.011 193.156 110.635 193.156C111.291 193.156 111.915 193.028 112.507 192.772C113.099 192.5 113.571 192.164 113.923 191.764ZM125.122 190.876C125.122 190.076 125.346 189.388 125.794 188.812C126.258 188.22 126.89 187.764 127.69 187.444C128.49 187.124 129.418 186.964 130.474 186.964C131.034 186.964 131.626 187.012 132.25 187.108C132.874 187.188 133.426 187.316 133.906 187.492V186.58C133.906 185.62 133.618 184.868 133.042 184.324C132.466 183.764 131.65 183.484 130.594 183.484C129.906 183.484 129.242 183.612 128.602 183.868C127.978 184.108 127.314 184.46 126.61 184.924L125.842 183.436C126.658 182.876 127.474 182.46 128.29 182.188C129.106 181.9 129.954 181.756 130.834 181.756C132.434 181.756 133.698 182.204 134.626 183.1C135.554 183.98 136.018 185.212 136.018 186.796V192.1C136.018 192.356 136.066 192.548 136.162 192.676C136.274 192.788 136.45 192.852 136.69 192.868V194.5C136.482 194.532 136.298 194.556 136.138 194.572C135.994 194.588 135.874 194.596 135.778 194.596C135.282 194.596 134.906 194.46 134.65 194.188C134.41 193.916 134.274 193.628 134.242 193.324L134.194 192.532C133.65 193.236 132.938 193.78 132.058 194.164C131.178 194.548 130.306 194.74 129.442 194.74C128.61 194.74 127.866 194.572 127.21 194.236C126.554 193.884 126.042 193.42 125.674 192.844C125.306 192.252 125.122 191.596 125.122 190.876ZM133.282 191.764C133.474 191.54 133.626 191.316 133.738 191.092C133.85 190.852 133.906 190.652 133.906 190.492V188.932C133.41 188.74 132.89 188.596 132.346 188.5C131.802 188.388 131.266 188.332 130.738 188.332C129.666 188.332 128.794 188.548 128.122 188.98C127.466 189.396 127.138 189.972 127.138 190.708C127.138 191.108 127.242 191.5 127.45 191.884C127.674 192.252 127.994 192.556 128.41 192.796C128.842 193.036 129.37 193.156 129.994 193.156C130.65 193.156 131.274 193.028 131.866 192.772C132.458 192.5 132.93 192.164 133.282 191.764ZM138.579 188.26C138.579 187.076 138.819 185.996 139.299 185.02C139.795 184.028 140.467 183.236 141.315 182.644C142.179 182.052 143.163 181.756 144.267 181.756C145.275 181.756 146.179 182.02 146.979 182.548C147.779 183.076 148.403 183.716 148.851 184.468V176.98H150.963V192.1C150.963 192.356 151.011 192.548 151.107 192.676C151.219 192.788 151.395 192.852 151.635 192.868V194.5C151.235 194.564 150.923 194.596 150.699 194.596C150.283 194.596 149.915 194.452 149.595 194.164C149.291 193.876 149.139 193.556 149.139 193.204V192.148C148.643 192.948 147.979 193.58 147.147 194.044C146.315 194.508 145.451 194.74 144.555 194.74C143.691 194.74 142.891 194.572 142.155 194.236C141.435 193.884 140.803 193.404 140.259 192.796C139.731 192.188 139.315 191.5 139.011 190.732C138.723 189.948 138.579 189.124 138.579 188.26ZM148.851 190.108V186.508C148.659 185.964 148.347 185.476 147.915 185.044C147.483 184.596 146.995 184.244 146.451 183.988C145.923 183.716 145.395 183.58 144.867 183.58C144.243 183.58 143.675 183.716 143.163 183.988C142.667 184.244 142.235 184.596 141.867 185.044C141.515 185.476 141.243 185.972 141.051 186.532C140.859 187.092 140.763 187.676 140.763 188.284C140.763 188.908 140.867 189.5 141.075 190.06C141.299 190.62 141.603 191.116 141.987 191.548C142.387 191.98 142.843 192.316 143.355 192.556C143.883 192.796 144.451 192.916 145.059 192.916C145.443 192.916 145.835 192.844 146.235 192.7C146.651 192.556 147.043 192.356 147.411 192.1C147.779 191.844 148.091 191.548 148.347 191.212C148.603 190.86 148.771 190.492 148.851 190.108ZM160.033 194.74C159.089 194.74 158.225 194.572 157.441 194.236C156.673 193.884 156.001 193.412 155.425 192.82C154.865 192.212 154.425 191.516 154.105 190.732C153.801 189.948 153.649 189.116 153.649 188.236C153.649 187.052 153.921 185.972 154.465 184.996C155.009 184.02 155.761 183.236 156.721 182.644C157.697 182.052 158.809 181.756 160.057 181.756C161.321 181.756 162.417 182.06 163.345 182.668C164.289 183.26 165.017 184.044 165.529 185.02C166.057 185.98 166.321 187.02 166.321 188.14C166.321 188.3 166.313 188.46 166.297 188.62C166.297 188.764 166.289 188.876 166.273 188.956H155.881C155.945 189.772 156.169 190.5 156.553 191.14C156.953 191.764 157.465 192.26 158.089 192.628C158.713 192.98 159.385 193.156 160.105 193.156C160.873 193.156 161.593 192.964 162.265 192.58C162.953 192.196 163.425 191.692 163.681 191.068L165.505 191.572C165.233 192.18 164.825 192.724 164.281 193.204C163.753 193.684 163.121 194.06 162.385 194.332C161.665 194.604 160.881 194.74 160.033 194.74ZM155.809 187.492H164.353C164.289 186.676 164.057 185.956 163.657 185.332C163.257 184.708 162.745 184.22 162.121 183.868C161.497 183.516 160.809 183.34 160.057 183.34C159.321 183.34 158.641 183.516 158.017 183.868C157.393 184.22 156.881 184.708 156.481 185.332C156.097 185.956 155.873 186.676 155.809 187.492ZM173.469 194.74C172.637 194.74 171.877 194.564 171.189 194.212C170.501 193.86 169.909 193.388 169.413 192.796C168.917 192.188 168.533 191.492 168.261 190.708C167.989 189.924 167.853 189.1 167.853 188.236C167.853 187.356 168.005 186.524 168.309 185.74C168.613 184.956 169.029 184.268 169.557 183.676C170.101 183.084 170.733 182.62 171.453 182.284C172.173 181.932 172.949 181.756 173.781 181.756C174.757 181.756 175.645 182.004 176.445 182.5C177.245 182.98 177.877 183.596 178.341 184.348V181.972H180.213V199.612H178.101V192.028C176.949 193.836 175.405 194.74 173.469 194.74ZM174.189 192.916C174.781 192.916 175.317 192.796 175.797 192.556C176.293 192.316 176.733 191.996 177.117 191.596C177.501 191.18 177.829 190.724 178.101 190.228V186.628C178.037 186.212 177.877 185.828 177.621 185.476C177.365 185.108 177.053 184.78 176.685 184.492C176.317 184.204 175.917 183.98 175.485 183.82C175.069 183.66 174.653 183.58 174.237 183.58C173.613 183.58 173.045 183.716 172.533 183.988C172.021 184.244 171.573 184.596 171.189 185.044C170.821 185.492 170.533 185.996 170.325 186.556C170.117 187.116 170.013 187.692 170.013 188.284C170.013 189.116 170.189 189.884 170.541 190.588C170.909 191.292 171.405 191.86 172.029 192.292C172.653 192.708 173.373 192.916 174.189 192.916ZM183.502 189.484V181.972H185.614V189.076C185.614 190.356 185.838 191.316 186.286 191.956C186.734 192.596 187.398 192.916 188.278 192.916C188.854 192.916 189.406 192.796 189.934 192.556C190.478 192.3 190.966 191.94 191.398 191.476C191.83 191.012 192.166 190.46 192.406 189.82V181.972H194.518V192.1C194.518 192.356 194.566 192.548 194.662 192.676C194.774 192.788 194.95 192.852 195.19 192.868V194.5C194.95 194.532 194.758 194.548 194.614 194.548C194.486 194.564 194.358 194.572 194.23 194.572C193.83 194.572 193.486 194.452 193.198 194.212C192.91 193.956 192.758 193.644 192.742 193.276L192.694 191.812C192.15 192.74 191.414 193.46 190.486 193.972C189.574 194.484 188.574 194.74 187.486 194.74C186.174 194.74 185.182 194.3 184.51 193.42C183.838 192.524 183.502 191.212 183.502 189.484ZM197.052 190.876C197.052 190.076 197.276 189.388 197.724 188.812C198.188 188.22 198.82 187.764 199.62 187.444C200.42 187.124 201.348 186.964 202.404 186.964C202.964 186.964 203.556 187.012 204.18 187.108C204.804 187.188 205.356 187.316 205.836 187.492V186.58C205.836 185.62 205.548 184.868 204.972 184.324C204.396 183.764 203.58 183.484 202.524 183.484C201.836 183.484 201.172 183.612 200.532 183.868C199.908 184.108 199.244 184.46 198.54 184.924L197.772 183.436C198.588 182.876 199.404 182.46 200.22 182.188C201.036 181.9 201.884 181.756 202.764 181.756C204.364 181.756 205.628 182.204 206.556 183.1C207.484 183.98 207.948 185.212 207.948 186.796V192.1C207.948 192.356 207.996 192.548 208.092 192.676C208.204 192.788 208.38 192.852 208.62 192.868V194.5C208.412 194.532 208.228 194.556 208.068 194.572C207.924 194.588 207.804 194.596 207.708 194.596C207.212 194.596 206.836 194.46 206.58 194.188C206.34 193.916 206.204 193.628 206.172 193.324L206.124 192.532C205.58 193.236 204.868 193.78 203.988 194.164C203.108 194.548 202.236 194.74 201.372 194.74C200.54 194.74 199.796 194.572 199.14 194.236C198.484 193.884 197.972 193.42 197.604 192.844C197.236 192.252 197.052 191.596 197.052 190.876ZM205.212 191.764C205.404 191.54 205.556 191.316 205.668 191.092C205.78 190.852 205.836 190.652 205.836 190.492V188.932C205.34 188.74 204.82 188.596 204.276 188.5C203.732 188.388 203.196 188.332 202.668 188.332C201.596 188.332 200.724 188.548 200.052 188.98C199.396 189.396 199.068 189.972 199.068 190.708C199.068 191.108 199.172 191.5 199.38 191.884C199.604 192.252 199.924 192.556 200.34 192.796C200.772 193.036 201.3 193.156 201.924 193.156C202.58 193.156 203.204 193.028 203.796 192.772C204.388 192.5 204.86 192.164 205.212 191.764ZM210.509 188.26C210.509 187.076 210.749 185.996 211.229 185.02C211.725 184.028 212.397 183.236 213.245 182.644C214.109 182.052 215.093 181.756 216.197 181.756C217.205 181.756 218.109 182.02 218.909 182.548C219.709 183.076 220.333 183.716 220.781 184.468V176.98H222.893V192.1C222.893 192.356 222.941 192.548 223.037 192.676C223.149 192.788 223.325 192.852 223.565 192.868V194.5C223.165 194.564 222.853 194.596 222.629 194.596C222.213 194.596 221.845 194.452 221.525 194.164C221.221 193.876 221.069 193.556 221.069 193.204V192.148C220.573 192.948 219.909 193.58 219.077 194.044C218.245 194.508 217.381 194.74 216.485 194.74C215.621 194.74 214.821 194.572 214.085 194.236C213.365 193.884 212.733 193.404 212.189 192.796C211.661 192.188 211.245 191.5 210.941 190.732C210.653 189.948 210.509 189.124 210.509 188.26ZM220.781 190.108V186.508C220.589 185.964 220.277 185.476 219.845 185.044C219.413 184.596 218.925 184.244 218.381 183.988C217.853 183.716 217.325 183.58 216.797 183.58C216.173 183.58 215.605 183.716 215.093 183.988C214.597 184.244 214.165 184.596 213.797 185.044C213.445 185.476 213.173 185.972 212.981 186.532C212.789 187.092 212.693 187.676 212.693 188.284C212.693 188.908 212.797 189.5 213.005 190.06C213.229 190.62 213.533 191.116 213.917 191.548C214.317 191.98 214.773 192.316 215.285 192.556C215.813 192.796 216.381 192.916 216.989 192.916C217.373 192.916 217.765 192.844 218.165 192.7C218.581 192.556 218.973 192.356 219.341 192.1C219.709 191.844 220.021 191.548 220.277 191.212C220.533 190.86 220.701 190.492 220.781 190.108ZM225.435 190.876C225.435 190.076 225.659 189.388 226.107 188.812C226.571 188.22 227.203 187.764 228.003 187.444C228.803 187.124 229.731 186.964 230.787 186.964C231.347 186.964 231.939 187.012 232.563 187.108C233.187 187.188 233.739 187.316 234.219 187.492V186.58C234.219 185.62 233.931 184.868 233.355 184.324C232.779 183.764 231.963 183.484 230.907 183.484C230.219 183.484 229.555 183.612 228.915 183.868C228.291 184.108 227.627 184.46 226.923 184.924L226.155 183.436C226.971 182.876 227.787 182.46 228.603 182.188C229.419 181.9 230.267 181.756 231.147 181.756C232.747 181.756 234.011 182.204 234.939 183.1C235.867 183.98 236.331 185.212 236.331 186.796V192.1C236.331 192.356 236.379 192.548 236.475 192.676C236.587 192.788 236.763 192.852 237.003 192.868V194.5C236.795 194.532 236.611 194.556 236.451 194.572C236.307 194.588 236.187 194.596 236.091 194.596C235.595 194.596 235.219 194.46 234.963 194.188C234.723 193.916 234.587 193.628 234.555 193.324L234.507 192.532C233.963 193.236 233.251 193.78 232.371 194.164C231.491 194.548 230.619 194.74 229.755 194.74C228.923 194.74 228.179 194.572 227.523 194.236C226.867 193.884 226.355 193.42 225.987 192.844C225.619 192.252 225.435 191.596 225.435 190.876ZM233.595 191.764C233.787 191.54 233.939 191.316 234.051 191.092C234.163 190.852 234.219 190.652 234.219 190.492V188.932C233.723 188.74 233.203 188.596 232.659 188.5C232.115 188.388 231.579 188.332 231.051 188.332C229.979 188.332 229.107 188.548 228.435 188.98C227.779 189.396 227.451 189.972 227.451 190.708C227.451 191.108 227.555 191.5 227.763 191.884C227.987 192.252 228.307 192.556 228.723 192.796C229.155 193.036 229.683 193.156 230.307 193.156C230.963 193.156 231.587 193.028 232.179 192.772C232.771 192.5 233.243 192.164 233.595 191.764Z" fill="#F8FAFC"/>
</svg>
