<svg width="256" height="256" viewBox="0 0 256 256" fill="none" xmlns="http://www.w3.org/2000/svg">
<path d="M198.828 209.769C197.552 215.19 192.715 219.021 187.147 219.021H49.8519C42.1137 219.021 36.3986 211.805 38.1709 204.272L75.4183 45.9706C76.6938 40.55 81.5307 36.7191 87.0993 36.7191H224.394C232.132 36.7191 237.847 43.935 236.075 51.4675L198.828 209.769Z" fill="#026569"/>
<path opacity="0.9" d="M230.279 196.569C229.003 201.99 224.166 205.821 218.598 205.821H30.1449C22.4067 205.821 16.6915 198.605 18.4639 191.072L40.715 96.5047C41.9904 91.0841 46.8274 87.2532 52.396 87.2532H240.849C248.587 87.2532 254.302 94.4692 252.53 102.002L230.279 196.569Z" fill="#642D80"/>
<path d="M238.339 27.7372H151.628C151.148 27.7372 150.759 27.349 150.759 26.8687C150.759 26.3883 151.148 26 151.628 26H238.339C238.819 26 239.208 26.3882 239.208 26.8687C239.208 27.349 238.819 27.7372 238.339 27.7372Z" fill="#642D80"/>
<path d="M105.316 230.225H18.605C18.1252 230.225 17.7358 229.837 17.7358 229.357C17.7358 228.877 18.1252 228.488 18.605 228.488H105.316C105.796 228.488 106.186 228.876 106.186 229.357C106.186 229.837 105.796 230.225 105.316 230.225Z" fill="#642D80"/>
<path d="M239.324 193.221H152.612C152.133 193.221 151.743 192.833 151.743 192.352C151.743 191.872 152.133 191.484 152.612 191.484H239.324C239.804 191.484 240.193 191.872 240.193 192.352C240.193 192.833 239.804 193.221 239.324 193.221Z" fill="#026569"/>
<path d="M87.5805 104.047H0.869016C0.389173 104.047 0 103.659 0 103.179C0 102.698 0.389173 102.31 0.869016 102.31H87.5805C88.0603 102.31 88.4497 102.698 88.4497 103.179C88.4497 103.659 88.0603 104.047 87.5805 104.047Z" fill="#026569"/>
<path d="M88.2395 63.5528C88.2395 62.5417 88.4184 61.5539 88.7761 60.5895C89.1495 59.6094 89.6862 58.7228 90.3862 57.9294C91.0862 57.1205 91.9418 56.4827 92.9529 56.016C93.964 55.5338 95.1151 55.2927 96.4063 55.2927C97.9308 55.2927 99.2452 55.6271 100.35 56.296C101.47 56.9649 102.302 57.8361 102.846 58.9094L100.373 60.6128C100.093 59.9906 99.7275 59.5005 99.2763 59.1428C98.8252 58.7694 98.343 58.5127 97.8296 58.3727C97.3163 58.2172 96.8107 58.1394 96.3129 58.1394C95.504 58.1394 94.7963 58.3027 94.1896 58.6294C93.5985 58.9561 93.1007 59.3839 92.6962 59.9128C92.2918 60.4417 91.9884 61.0328 91.7862 61.6861C91.5995 62.3395 91.5062 62.9928 91.5062 63.6462C91.5062 64.3773 91.6229 65.0851 91.8562 65.7696C92.0895 66.4385 92.4162 67.0374 92.8362 67.5663C93.2718 68.0796 93.7851 68.4918 94.3762 68.8029C94.9829 69.0985 95.644 69.2463 96.3596 69.2463C96.873 69.2463 97.3941 69.1607 97.923 68.9896C98.4519 68.8185 98.9419 68.5463 99.393 68.1729C99.8441 67.7996 100.194 67.3174 100.443 66.7262L103.08 68.2429C102.753 69.0674 102.216 69.7674 101.47 70.343C100.739 70.9185 99.9141 71.3541 98.9963 71.6497C98.0785 71.9452 97.1685 72.093 96.2663 72.093C95.084 72.093 94.0029 71.8519 93.0229 71.3697C92.0429 70.8719 91.1951 70.2185 90.4795 69.4096C89.7795 68.5852 89.2273 67.6674 88.8228 66.6562C88.4339 65.6296 88.2395 64.5951 88.2395 63.5528ZM110.537 72.1863C109.541 72.1863 108.647 72.023 107.854 71.6963C107.06 71.3541 106.384 70.8874 105.824 70.2963C105.279 69.7052 104.859 69.0285 104.564 68.2663C104.268 67.504 104.12 66.7029 104.12 65.8629C104.12 65.0073 104.268 64.1984 104.564 63.4362C104.859 62.6739 105.279 61.9973 105.824 61.4061C106.384 60.815 107.06 60.3561 107.854 60.0294C108.647 59.6872 109.541 59.5161 110.537 59.5161C111.533 59.5161 112.419 59.6872 113.197 60.0294C113.99 60.3561 114.667 60.815 115.227 61.4061C115.787 61.9973 116.207 62.6739 116.487 63.4362C116.783 64.1984 116.931 65.0073 116.931 65.8629C116.931 66.7029 116.783 67.504 116.487 68.2663C116.207 69.0285 115.787 69.7052 115.227 70.2963C114.683 70.8874 114.014 71.3541 113.22 71.6963C112.427 72.023 111.533 72.1863 110.537 72.1863ZM107.34 65.8629C107.34 66.5785 107.48 67.2162 107.76 67.7763C108.04 68.3207 108.421 68.7485 108.904 69.0596C109.386 69.3707 109.93 69.5263 110.537 69.5263C111.128 69.5263 111.665 69.3707 112.147 69.0596C112.629 68.7329 113.01 68.2974 113.29 67.7529C113.586 67.1929 113.734 66.5551 113.734 65.8396C113.734 65.1395 113.586 64.5095 113.29 63.9495C113.01 63.3895 112.629 62.9539 112.147 62.6428C111.665 62.3317 111.128 62.1762 110.537 62.1762C109.93 62.1762 109.386 62.3395 108.904 62.6662C108.421 62.9773 108.04 63.4128 107.76 63.9729C107.48 64.5173 107.34 65.1473 107.34 65.8629ZM138.035 71.953H134.908V65.0929C134.908 64.1284 134.737 63.4206 134.395 62.9695C134.068 62.5028 133.609 62.2695 133.018 62.2695C132.411 62.2695 131.828 62.5106 131.268 62.9928C130.723 63.4595 130.334 64.074 130.101 64.8362V71.953H126.974V65.0929C126.974 64.1129 126.803 63.3973 126.461 62.9462C126.134 62.495 125.676 62.2695 125.084 62.2695C124.478 62.2695 123.894 62.5028 123.334 62.9695C122.79 63.4362 122.401 64.0506 122.168 64.8129V71.953H119.041V59.7261H121.864V61.9895C122.331 61.1961 122.953 60.5895 123.731 60.1694C124.509 59.7339 125.403 59.5161 126.414 59.5161C127.426 59.5161 128.211 59.765 128.771 60.2628C129.347 60.7606 129.712 61.375 129.868 62.1062C130.366 61.2661 130.996 60.6283 131.758 60.1928C132.536 59.7417 133.407 59.5161 134.371 59.5161C135.133 59.5161 135.748 59.6561 136.215 59.9361C136.697 60.2006 137.07 60.5661 137.335 61.0328C137.599 61.4839 137.778 61.9973 137.871 62.5728C137.98 63.1484 138.035 63.7317 138.035 64.3229V71.953ZM146.427 72.1863C145.447 72.1863 144.56 72.023 143.767 71.6963C142.974 71.3541 142.297 70.8952 141.737 70.3196C141.177 69.7285 140.741 69.0596 140.43 68.3129C140.135 67.5507 139.987 66.7496 139.987 65.9096C139.987 64.7429 140.244 63.6773 140.757 62.7128C141.286 61.7484 142.032 60.9784 142.997 60.4028C143.977 59.8117 145.128 59.5161 146.45 59.5161C147.788 59.5161 148.931 59.8117 149.88 60.4028C150.829 60.9784 151.553 61.7484 152.05 62.7128C152.564 63.6617 152.82 64.6884 152.82 65.7929C152.82 65.9796 152.813 66.174 152.797 66.3762C152.782 66.5629 152.766 66.7185 152.75 66.8429H143.3C143.362 67.4651 143.541 68.0096 143.837 68.4763C144.148 68.9429 144.537 69.3007 145.004 69.5496C145.486 69.783 145.999 69.8996 146.544 69.8996C147.166 69.8996 147.749 69.7519 148.294 69.4563C148.854 69.1452 149.235 68.7407 149.437 68.2429L152.12 68.9896C151.825 69.6118 151.397 70.1641 150.837 70.6463C150.293 71.1285 149.647 71.5097 148.9 71.7897C148.154 72.0541 147.329 72.1863 146.427 72.1863ZM143.23 64.8595H149.624C149.561 64.2373 149.383 63.7006 149.087 63.2495C148.807 62.7828 148.434 62.425 147.967 62.1762C147.5 61.9117 146.979 61.7795 146.404 61.7795C145.844 61.7795 145.33 61.9117 144.864 62.1762C144.412 62.425 144.039 62.7828 143.744 63.2495C143.464 63.7006 143.292 64.2373 143.23 64.8595ZM160.419 72.1863C159.423 72.1863 158.529 72.023 157.735 71.6963C156.942 71.3541 156.265 70.8874 155.705 70.2963C155.145 69.6896 154.71 69.0052 154.399 68.2429C154.103 67.4807 153.955 66.6796 153.955 65.8396C153.955 64.6884 154.212 63.6384 154.725 62.6895C155.254 61.725 156.001 60.955 156.965 60.3795C157.93 59.8039 159.073 59.5161 160.395 59.5161C161.718 59.5161 162.853 59.8039 163.802 60.3795C164.751 60.955 165.459 61.7095 165.925 62.6428L162.869 63.5762C162.604 63.1251 162.254 62.7828 161.819 62.5495C161.383 62.3006 160.901 62.1762 160.372 62.1762C159.781 62.1762 159.236 62.3317 158.739 62.6428C158.256 62.9384 157.875 63.3662 157.595 63.9262C157.315 64.4706 157.175 65.1084 157.175 65.8396C157.175 66.5551 157.315 67.1929 157.595 67.7529C157.891 68.2974 158.28 68.7329 158.762 69.0596C159.244 69.3707 159.781 69.5263 160.372 69.5263C160.745 69.5263 161.095 69.4641 161.422 69.3396C161.764 69.2152 162.068 69.0441 162.332 68.8263C162.596 68.6085 162.791 68.3596 162.915 68.0796L165.972 69.0129C165.692 69.6196 165.28 70.1641 164.735 70.6463C164.207 71.1285 163.576 71.5097 162.845 71.7897C162.13 72.0541 161.321 72.1863 160.419 72.1863ZM160.092 76.6431C159.672 76.6431 159.221 76.5809 158.739 76.4564C158.256 76.3475 157.774 76.1764 157.292 75.9431L158.085 74.2864C158.319 74.4419 158.552 74.5586 158.785 74.6364C159.034 74.7297 159.291 74.7764 159.555 74.7764C159.96 74.7764 160.271 74.6831 160.489 74.4964C160.722 74.3253 160.839 74.0686 160.839 73.7264C160.839 73.3997 160.722 73.0886 160.489 72.793C160.271 72.513 159.952 72.233 159.532 71.953L160.582 71.2763C161.204 71.6808 161.718 72.1163 162.122 72.583C162.526 73.0652 162.729 73.6486 162.729 74.333C162.729 74.9864 162.503 75.5308 162.052 75.9664C161.616 76.4175 160.963 76.6431 160.092 76.6431ZM167.056 68.3363C167.056 67.5429 167.274 66.8507 167.709 66.2596C168.16 65.6529 168.783 65.1862 169.576 64.8595C170.369 64.5329 171.279 64.3695 172.306 64.3695C172.819 64.3695 173.341 64.4084 173.869 64.4862C174.398 64.564 174.857 64.6884 175.246 64.8595V64.2062C175.246 63.4284 175.013 62.8295 174.546 62.4095C174.095 61.9895 173.418 61.7795 172.516 61.7795C171.847 61.7795 171.209 61.8961 170.603 62.1295C169.996 62.3628 169.358 62.7051 168.689 63.1562L167.686 61.1028C168.495 60.5739 169.319 60.1772 170.159 59.9128C171.015 59.6483 171.909 59.5161 172.843 59.5161C174.585 59.5161 175.938 59.9517 176.903 60.8228C177.883 61.6939 178.373 62.9384 178.373 64.5562V68.4529C178.373 68.7796 178.427 69.0129 178.536 69.153C178.661 69.293 178.855 69.3785 179.12 69.4096V71.953C178.84 71.9997 178.583 72.0386 178.35 72.0697C178.132 72.1008 177.945 72.1163 177.79 72.1163C177.167 72.1163 176.693 71.9763 176.366 71.6963C176.055 71.4163 175.861 71.0741 175.783 70.6696L175.713 70.0396C175.184 70.7241 174.523 71.253 173.729 71.6263C172.936 71.9997 172.127 72.1863 171.303 72.1863C170.494 72.1863 169.763 72.023 169.109 71.6963C168.472 71.3541 167.966 70.8952 167.593 70.3196C167.235 69.7285 167.056 69.0674 167.056 68.3363ZM174.663 68.9663C174.834 68.7796 174.974 68.5929 175.083 68.4063C175.192 68.2196 175.246 68.0485 175.246 67.8929V66.6562C174.873 66.5007 174.468 66.384 174.033 66.3062C173.597 66.2129 173.185 66.1662 172.796 66.1662C171.987 66.1662 171.318 66.3451 170.789 66.7029C170.276 67.0451 170.019 67.504 170.019 68.0796C170.019 68.3907 170.105 68.6863 170.276 68.9663C170.447 69.2463 170.696 69.4718 171.023 69.643C171.349 69.8141 171.738 69.8996 172.189 69.8996C172.656 69.8996 173.115 69.8141 173.566 69.643C174.017 69.4563 174.383 69.2307 174.663 68.9663ZM192.57 72.1863C191.59 72.1863 190.704 72.023 189.91 71.6963C189.117 71.3541 188.44 70.8952 187.88 70.3196C187.32 69.7285 186.885 69.0596 186.574 68.3129C186.278 67.5507 186.13 66.7496 186.13 65.9096C186.13 64.7429 186.387 63.6773 186.9 62.7128C187.429 61.7484 188.176 60.9784 189.14 60.4028C190.12 59.8117 191.271 59.5161 192.594 59.5161C193.932 59.5161 195.075 59.8117 196.024 60.4028C196.973 60.9784 197.696 61.7484 198.194 62.7128C198.707 63.6617 198.964 64.6884 198.964 65.7929C198.964 65.9796 198.956 66.174 198.941 66.3762C198.925 66.5629 198.909 66.7185 198.894 66.8429H189.444C189.506 67.4651 189.685 68.0096 189.98 68.4763C190.291 68.9429 190.68 69.3007 191.147 69.5496C191.629 69.783 192.143 69.8996 192.687 69.8996C193.309 69.8996 193.893 69.7519 194.437 69.4563C194.997 69.1452 195.378 68.7407 195.58 68.2429L198.264 68.9896C197.968 69.6118 197.541 70.1641 196.98 70.6463C196.436 71.1285 195.79 71.5097 195.044 71.7897C194.297 72.0541 193.473 72.1863 192.57 72.1863ZM189.374 64.8595H195.767C195.705 64.2373 195.526 63.7006 195.23 63.2495C194.95 62.7828 194.577 62.425 194.11 62.1762C193.644 61.9117 193.123 61.7795 192.547 61.7795C191.987 61.7795 191.474 61.9117 191.007 62.1762C190.556 62.425 190.183 62.7828 189.887 63.2495C189.607 63.7006 189.436 64.2373 189.374 64.8595ZM219.862 71.953H216.736V65.0929C216.736 64.1284 216.565 63.4206 216.222 62.9695C215.896 62.5028 215.437 62.2695 214.846 62.2695C214.239 62.2695 213.656 62.5106 213.096 62.9928C212.551 63.4595 212.162 64.074 211.929 64.8362V71.953H208.802V65.0929C208.802 64.1129 208.631 63.3973 208.289 62.9462C207.962 62.495 207.503 62.2695 206.912 62.2695C206.305 62.2695 205.722 62.5028 205.162 62.9695C204.618 63.4362 204.229 64.0506 203.995 64.8129V71.953H200.869V59.7261H203.692V61.9895C204.159 61.1961 204.781 60.5895 205.559 60.1694C206.337 59.7339 207.231 59.5161 208.242 59.5161C209.253 59.5161 210.039 59.765 210.599 60.2628C211.174 60.7606 211.54 61.375 211.696 62.1062C212.193 61.2661 212.823 60.6283 213.586 60.1928C214.363 59.7417 215.234 59.5161 216.199 59.5161C216.961 59.5161 217.576 59.6561 218.042 59.9361C218.525 60.2006 218.898 60.5661 219.162 61.0328C219.427 61.4839 219.606 61.9973 219.699 62.5728C219.808 63.1484 219.862 63.7317 219.862 64.3229V71.953Z" fill="#F8FAFC"/>
</svg>
