<svg width="48" height="48" viewBox="0 0 48 48" fill="none" xmlns="http://www.w3.org/2000/svg">
<path d="M28.0251 7.025C28.0251 4.80406 26.2211 3 24.0001 3C21.7792 3 19.9751 4.80406 19.9751 7.025C19.9751 9.24594 21.7792 11.05 24.0001 11.05C26.2211 11.05 28.0251 9.24594 28.0251 7.025ZM29.7501 22.3128L33.0779 26.7978C33.8326 27.8184 35.2773 28.0341 36.2979 27.2722C37.3186 26.5103 37.5342 25.0728 36.7723 24.0522L31.7051 17.2241C29.8939 14.7875 27.0404 13.35 24.0001 13.35C20.9598 13.35 18.1064 14.7875 16.2951 17.2241L11.2279 24.0522C10.4733 25.0728 10.6817 26.5103 11.7023 27.2722C12.7229 28.0341 14.1604 27.8184 14.9223 26.7978L18.2501 22.3128V42.1C18.2501 43.3722 19.2779 44.4 20.5501 44.4C21.8223 44.4 22.8501 43.3722 22.8501 42.1V30.6C22.8501 29.9675 23.3676 29.45 24.0001 29.45C24.6326 29.45 25.1501 29.9675 25.1501 30.6V42.1C25.1501 43.3722 26.1779 44.4 27.4501 44.4C28.7223 44.4 29.7501 43.3722 29.7501 42.1V22.3128Z" fill="#00A5AB"/>
<path d="M28.5 16.1C28.2791 16.1 28.1 16.2791 28.1 16.5C28.1 16.7209 28.2791 16.9 28.5 16.9V16.5V16.1ZM40.7828 16.7828C40.9391 16.6266 40.9391 16.3734 40.7828 16.2172L38.2373 13.6716C38.081 13.5154 37.8278 13.5154 37.6716 13.6716C37.5154 13.8278 37.5154 14.081 37.6716 14.2373L39.9343 16.5L37.6716 18.7627C37.5154 18.919 37.5154 19.1722 37.6716 19.3284C37.8278 19.4846 38.081 19.4846 38.2373 19.3284L40.7828 16.7828ZM29 16.9C29.2209 16.9 29.4 16.7209 29.4 16.5C29.4 16.2791 29.2209 16.1 29 16.1V16.5V16.9ZM30 16.1C29.7791 16.1 29.6 16.2791 29.6 16.5C29.6 16.7209 29.7791 16.9 30 16.9V16.5V16.1ZM31 16.9C31.2209 16.9 31.4 16.7209 31.4 16.5C31.4 16.2791 31.2209 16.1 31 16.1V16.5V16.9ZM32 16.1C31.7791 16.1 31.6 16.2791 31.6 16.5C31.6 16.7209 31.7791 16.9 32 16.9V16.5V16.1ZM33 16.9C33.2209 16.9 33.4 16.7209 33.4 16.5C33.4 16.2791 33.2209 16.1 33 16.1V16.5V16.9ZM34 16.1C33.7791 16.1 33.6 16.2791 33.6 16.5C33.6 16.7209 33.7791 16.9 34 16.9V16.5V16.1ZM35 16.9C35.2209 16.9 35.4 16.7209 35.4 16.5C35.4 16.2791 35.2209 16.1 35 16.1V16.5V16.9ZM36 16.1C35.7791 16.1 35.6 16.2791 35.6 16.5C35.6 16.7209 35.7791 16.9 36 16.9V16.5V16.1ZM37 16.9C37.2209 16.9 37.4 16.7209 37.4 16.5C37.4 16.2791 37.2209 16.1 37 16.1V16.5V16.9ZM38 16.1C37.7791 16.1 37.6 16.2791 37.6 16.5C37.6 16.7209 37.7791 16.9 38 16.9V16.5V16.1ZM39 16.9C39.2209 16.9 39.4 16.7209 39.4 16.5C39.4 16.2791 39.2209 16.1 39 16.1V16.5V16.9ZM40 16.1C39.7791 16.1 39.6 16.2791 39.6 16.5C39.6 16.7209 39.7791 16.9 40 16.9V16.5V16.1ZM28.5 16.5V16.9H29V16.5V16.1H28.5V16.5ZM30 16.5V16.9H31V16.5V16.1H30V16.5ZM32 16.5V16.9H33V16.5V16.1H32V16.5ZM34 16.5V16.9H35V16.5V16.1H34V16.5ZM36 16.5V16.9H37V16.5V16.1H36V16.5ZM38 16.5V16.9H39V16.5V16.1H38V16.5ZM40 16.5V16.9H40.5V16.5V16.1H40V16.5Z" fill="#00A5AB"/>
<path d="M19.5 16.9C19.7209 16.9 19.9 16.7209 19.9 16.5C19.9 16.2791 19.7209 16.1 19.5 16.1L19.5 16.5L19.5 16.9ZM7.21716 16.2172C7.06095 16.3734 7.06095 16.6266 7.21716 16.7828L9.76274 19.3284C9.91895 19.4846 10.1722 19.4846 10.3284 19.3284C10.4846 19.1722 10.4846 18.919 10.3284 18.7627L8.06569 16.5L10.3284 14.2373C10.4846 14.081 10.4846 13.8278 10.3284 13.6716C10.1722 13.5154 9.91895 13.5154 9.76274 13.6716L7.21716 16.2172ZM19 16.1C18.7791 16.1 18.6 16.2791 18.6 16.5C18.6 16.7209 18.7791 16.9 19 16.9L19 16.5L19 16.1ZM18 16.9C18.2209 16.9 18.4 16.7209 18.4 16.5C18.4 16.2791 18.2209 16.1 18 16.1L18 16.5L18 16.9ZM17 16.1C16.7791 16.1 16.6 16.2791 16.6 16.5C16.6 16.7209 16.7791 16.9 17 16.9L17 16.5L17 16.1ZM16 16.9C16.2209 16.9 16.4 16.7209 16.4 16.5C16.4 16.2791 16.2209 16.1 16 16.1L16 16.5L16 16.9ZM15 16.1C14.7791 16.1 14.6 16.2791 14.6 16.5C14.6 16.7209 14.7791 16.9 15 16.9L15 16.5L15 16.1ZM14 16.9C14.2209 16.9 14.4 16.7209 14.4 16.5C14.4 16.2791 14.2209 16.1 14 16.1L14 16.5L14 16.9ZM13 16.1C12.7791 16.1 12.6 16.2791 12.6 16.5C12.6 16.7209 12.7791 16.9 13 16.9L13 16.5L13 16.1ZM12 16.9C12.2209 16.9 12.4 16.7209 12.4 16.5C12.4 16.2791 12.2209 16.1 12 16.1L12 16.5L12 16.9ZM11 16.1C10.7791 16.1 10.6 16.2791 10.6 16.5C10.6 16.7209 10.7791 16.9 11 16.9L11 16.5L11 16.1ZM10 16.9C10.2209 16.9 10.4 16.7209 10.4 16.5C10.4 16.2791 10.2209 16.1 10 16.1L10 16.5L10 16.9ZM9 16.1C8.77909 16.1 8.6 16.2791 8.6 16.5C8.6 16.7209 8.77909 16.9 9 16.9L9 16.5L9 16.1ZM8 16.9C8.22091 16.9 8.4 16.7209 8.4 16.5C8.4 16.2791 8.22091 16.1 8 16.1L8 16.5L8 16.9ZM19.5 16.5L19.5 16.1L19 16.1L19 16.5L19 16.9L19.5 16.9L19.5 16.5ZM18 16.5L18 16.1L17 16.1L17 16.5L17 16.9L18 16.9L18 16.5ZM16 16.5L16 16.1L15 16.1L15 16.5L15 16.9L16 16.9L16 16.5ZM14 16.5L14 16.1L13 16.1L13 16.5L13 16.9L14 16.9L14 16.5ZM12 16.5L12 16.1L11 16.1L11 16.5L11 16.9L12 16.9L12 16.5ZM10 16.5L10 16.1L9 16.1L9 16.5L9 16.9L10 16.9L10 16.5ZM8 16.5L8 16.1L7.5 16.1L7.5 16.5L7.5 16.9L8 16.9L8 16.5Z" fill="#00A5AB"/>
</svg>
